<svg data-v-423bf9ae="" xmlns="http://www.w3.org/2000/svg" viewBox="0 0 920.0220954278622 193" class="fontAboveSlogan"><!----><!----><defs data-v-423bf9ae=""><linearGradient data-v-423bf9ae="" gradientTransform="rotate(25)" id="cc19fd86-51fe-4eb8-882c-1ba90deb3708" x1="0%" y1="0%" x2="100%" y2="0%"><stop data-v-423bf9ae="" offset="0%" style="stop-color: rgb(0, 0, 0); stop-opacity: 1;"></stop><stop data-v-423bf9ae="" offset="100%" style="stop-color: rgb(252, 211, 77); stop-opacity: 1;"></stop></linearGradient></defs><g data-v-423bf9ae="" id="3f916104-7c60-4020-a512-9215871a30c5" fill="url(#cc19fd86-51fe-4eb8-882c-1ba90deb3708)" transform="matrix(10.566464897812006,0,0,10.566464897812006,-2.115673794742861,-14.685671279089249)"><path d="M4.23 2.18L4.23 2.18L4.23 2.18Q4.23 2.56 3.72 2.66L3.72 2.66L3.72 2.66Q3.07 2.79 2.91 2.95L2.91 2.95L2.91 2.95Q1.34 4.61 1.34 7.22L1.34 7.22L1.34 7.22Q1.34 8.46 1.74 9.55L1.74 9.55L1.74 9.55Q2.06 10.44 2.20 10.72L2.20 10.72L2.20 10.72Q2.55 11.41 3.05 11.70L3.05 11.70L3.05 11.70Q3.26 11.80 3.47 11.89L3.47 11.89L3.47 11.89Q3.70 12.01 3.70 12.24L3.70 12.24L3.70 12.24Q3.70 12.46 3.55 12.64L3.55 12.64L3.55 12.64Q3.40 12.82 3.23 12.78L3.23 12.78L3.23 12.78Q3.05 12.75 2.67 12.60L2.67 12.60L2.67 12.60Q2.00 12.21 1.22 10.93L1.22 10.93L1.22 10.93Q1.02 10.61 0.82 10.27L0.82 10.27L0.82 10.27Q0.62 9.93 0.52 9.62L0.52 9.62L0.52 9.62Q0.45 9.39 0.28 7.81L0.28 7.81L0.28 7.81Q0.22 7.32 0.22 6.86L0.22 6.86L0.22 6.86Q0.22 4.38 1.67 2.65L1.67 2.65L1.67 2.65Q2.51 1.64 3.42 1.64L3.42 1.64L3.42 1.64Q3.81 1.64 4.13 1.88L4.13 1.88L4.13 1.88Q4.23 1.95 4.23 2.18ZM8.81 2.80L8.81 2.80L8.81 2.80Q8.78 4.05 8.40 6.75L8.40 6.75L8.40 6.75Q8.05 9.31 8.05 10.68L8.05 10.68L8.05 10.68Q8.05 11.12 8.08 11.51L8.08 11.51L8.08 11.51Q8.08 11.61 7.99 11.70L7.99 11.70L7.99 11.70Q7.91 11.79 7.80 11.79L7.80 11.79L7.80 11.79Q7.41 11.79 7.28 11.72L7.28 11.72L7.28 11.72Q6.75 11.41 6.75 10.56L6.75 10.56L6.75 10.56Q6.75 10.39 6.77 10.03L6.77 10.03L6.77 10.03Q6.79 9.67 6.79 9.51L6.79 9.51L6.79 9.51Q6.79 9.23 6.86 8.65L6.86 8.65L6.86 8.65Q6.93 8.08 6.93 7.77L6.93 7.77L6.93 7.77Q6.73 7.78 6.39 7.71L6.39 7.71L6.39 7.71Q6.05 7.64 5.89 7.64L5.89 7.64L5.89 7.64Q5.71 7.64 5.54 7.70L5.54 7.70L5.54 7.70Q5.21 8.81 5.15 10.96L5.15 10.96L5.15 10.96Q4.68 11.16 4.23 10.92L4.23 10.92L4.23 10.92Q3.91 10.75 3.91 10.25L3.91 10.25L3.91 10.25Q3.91 10.14 3.93 9.95L3.93 9.95L3.93 9.95Q3.95 9.76 3.95 9.72L3.95 9.72L3.95 9.72Q3.99 8.96 4.27 6.72L4.27 6.72L4.27 6.72Q4.51 4.84 4.49 3.74L4.49 3.74L4.49 3.74Q4.49 3.58 4.71 3.54L4.71 3.54L4.71 3.54Q4.93 3.50 4.96 3.46L4.96 3.46L4.96 3.46Q5.04 3.56 5.36 3.63L5.36 3.63L5.36 3.63Q5.63 3.68 5.68 3.88L5.68 3.88L5.68 3.88Q5.80 4.23 5.80 4.66L5.80 4.66L5.80 4.66Q5.80 4.97 5.71 5.63L5.71 5.63L5.71 5.63Q5.61 6.30 5.61 6.65L5.61 6.65L5.61 6.65Q5.78 6.78 6.03 6.80L6.03 6.80L6.03 6.80Q6.20 6.83 6.51 6.82L6.51 6.82L6.51 6.82Q6.92 6.79 7 6.79L7 6.79L7 6.79Q7.35 5.32 7.62 2.98L7.62 2.98L7.62 2.98Q7.67 2.49 7.97 2.49L7.97 2.49L7.97 2.49Q8.71 2.42 8.81 2.80ZM15.41 10.72L15.41 10.72L15.41 10.72Q15.46 10.78 15.46 10.85L15.46 10.85L15.46 10.85Q15.46 11.17 14.78 11.34L14.78 11.34L14.78 11.34Q14.04 10.77 12.94 9.58L12.94 9.58L12.94 9.58Q11.70 8.25 11.10 7.73L11.10 7.73L11.10 7.73Q11.06 8.09 10.95 9.63L10.95 9.63L10.95 9.63Q10.88 10.79 10.70 11.48L10.70 11.48L10.70 11.48Q10.67 11.48 10.52 11.55L10.52 11.55L10.52 11.55Q10.37 11.62 10.28 11.59L10.28 11.59L10.28 11.59Q9.66 11.45 9.66 10.74L9.66 10.74L9.66 10.74Q9.66 10.53 9.72 10.18L9.72 10.18L9.72 10.18Q9.77 9.77 9.79 9.67L9.79 9.67L9.79 9.67Q9.84 8.86 9.86 7.74L9.86 7.74L9.86 6.22L9.86 6.22Q9.86 4.31 10.07 3.01L10.07 3.01L10.07 3.01Q10.21 2.14 11.70 2.21L11.70 2.21L11.70 2.21Q12.46 2.24 13.02 2.97L13.02 2.97L13.02 2.97Q13.54 3.64 13.54 4.42L13.54 4.42L13.54 4.42Q13.54 5.08 13.05 5.74L13.05 5.74L13.05 5.74Q12.63 6.33 12.01 6.66L12.01 6.66L12.01 6.66Q11.76 6.80 11.76 6.97L11.76 6.97L11.76 6.97Q11.76 7.15 12.05 7.41L12.05 7.41L12.05 7.41Q12.28 7.59 12.50 7.77L12.50 7.77L12.50 7.77Q12.52 7.78 14.04 9.17L14.04 9.17L14.04 9.17Q15.01 10.04 15.41 10.72ZM12.46 4.44L12.46 4.44L12.46 4.44Q12.50 4.19 12.49 3.99L12.49 3.99L12.49 3.99Q12.45 3.70 12.24 3.46L12.24 3.46L12.24 3.46Q12.04 3.22 11.59 3.22L11.59 3.22L11.59 3.22Q11.26 3.22 11.17 3.43L11.17 3.43L11.17 3.43Q11.10 3.78 11.10 4.23L11.10 4.23L11.10 4.23Q11.10 4.41 11.14 5.17L11.14 5.17L11.14 5.17Q11.17 5.74 11.14 6.10L11.14 6.10L11.14 6.10Q12.31 5.24 12.46 4.44ZM16.28 3.54L16.28 3.54L16.28 3.54Q16.31 3.95 16.31 4.38L16.31 4.38L16.31 4.38Q16.31 5.33 16.11 7.25L16.11 7.25L16.11 7.25Q15.92 9.17 15.92 10.15L15.92 10.15L15.92 10.15Q15.92 10.51 15.93 10.86L15.93 10.86L15.93 10.86Q15.81 11.26 15.39 11.24L15.39 11.24L15.39 11.24Q14.78 11.21 14.73 10.72L14.73 10.72L14.73 10.72Q14.67 10.23 14.67 9.69L14.67 9.69L14.67 9.69Q14.67 8.74 14.90 6.85L14.90 6.85L14.90 6.85Q15.13 4.96 15.13 4.02L15.13 4.02L15.13 4.02Q15.13 3.65 15.11 3.30L15.11 3.30L15.11 3.30Q15.25 3.04 15.58 3.04L15.58 3.04L15.58 3.04Q15.85 3.04 16.11 3.19L16.11 3.19L16.11 3.19Q16.17 3.15 16.20 3.15L16.20 3.15L16.20 3.15Q16.24 3.15 16.24 3.29L16.24 3.29L16.24 3.29Q16.23 3.46 16.24 3.49L16.24 3.49L16.24 3.49Q16.25 3.53 16.28 3.54ZM20.05 2.16L20.05 2.16L20.05 2.16Q20.05 2.44 19.64 2.65L19.64 2.65L19.64 2.65Q19.53 2.70 19.40 2.66L19.40 2.66L19.40 2.66Q19.21 2.60 19.19 2.60L19.19 2.60L19.19 2.60Q19.11 2.60 19.03 2.69L19.03 2.69L19.03 2.69Q18.27 3.44 18.27 4.54L18.27 4.54L18.27 4.54Q18.27 4.94 18.40 5.29L18.40 5.29L18.40 5.29Q18.45 5.45 19.46 7.46L19.46 7.46L19.46 7.46Q20.13 8.81 20.13 9.74L20.13 9.74L20.13 9.74Q20.13 10.51 19.75 11.23L19.75 11.23L19.75 11.23Q19.63 11.47 19.12 11.84L19.12 11.84L19.12 11.84Q18.72 12.14 18.40 12.14L18.40 12.14L18.40 12.14Q18.27 12.14 18.16 12.10L18.16 12.10L18.16 12.10Q17.74 11.91 17.74 11.63L17.74 11.63L17.74 11.63Q17.74 11.47 17.95 11.23L17.95 11.23L17.95 11.23Q18.00 11.16 18.21 11.14L18.21 11.14L18.21 11.14Q18.42 11.13 18.49 10.98L18.49 10.98L18.49 10.98Q18.79 10.36 18.79 9.72L18.79 9.72L18.79 9.72Q18.79 8.81 17.88 7.08L17.88 7.08L17.88 7.08Q16.98 5.35 16.98 4.31L16.98 4.31L16.98 4.31Q16.98 3.46 17.32 2.79L17.32 2.79L17.32 2.79Q17.70 2.02 18.40 1.68L18.40 1.68L18.40 1.68Q18.72 1.53 19.03 1.53L19.03 1.53L19.03 1.53Q19.61 1.53 19.91 1.85L19.91 1.85L19.91 1.85Q20.05 2.00 20.05 2.16ZM28 1.90L28 1.90L28 1.90Q27.87 2.41 27.52 2.49L27.52 2.49L27.52 2.49Q26.61 2.72 24.36 3.08L24.36 3.08L24.36 3.08Q24.08 6.57 24.08 8.89L24.08 8.89L24.08 8.89Q24.08 9.77 24.11 10.63L24.11 10.63L24.11 10.63Q24.12 10.89 24.08 11.03L24.08 11.03L24.08 11.03Q24.01 11.26 23.80 11.24L23.80 11.24L23.80 11.24Q23.39 11.23 23.13 10.90L23.13 10.90L23.13 10.90Q22.86 10.57 22.83 10.16L22.83 10.16L22.83 10.16Q22.81 9.65 22.81 9.07L22.81 9.07L22.81 9.07Q22.81 8.15 22.93 6.15L22.93 6.15L22.93 6.15Q23.06 4.23 23.04 3.22L23.04 3.22L23.04 3.22Q22.67 3.19 21.99 3.29L21.99 3.29L21.99 3.29Q21.22 3.40 20.93 3.40L20.93 3.40L20.93 3.40Q20.24 3.40 19.81 3.04L19.81 3.04L19.81 3.04Q19.64 2.67 19.64 2.66L19.64 2.66L19.64 2.66Q19.64 2.56 19.74 2.45L19.74 2.45L19.74 2.45Q20.19 2.30 21.57 2.17L21.57 2.17L21.57 2.17Q22.79 2.04 23.39 1.72L23.39 1.72L23.39 1.72Q23.88 1.88 24.51 1.88L24.51 1.88L24.51 1.88Q25.14 1.88 25.72 1.72L25.72 1.72L25.72 1.72Q25.89 1.71 26.57 1.53L26.57 1.53L26.57 1.53Q27.08 1.40 27.41 1.44L27.41 1.44L27.41 1.44Q27.66 1.44 27.62 1.65L27.62 1.65L27.62 1.65Q28 1.65 28 1.90ZM30.88 7.60L30.88 7.60L30.88 7.60Q30.06 9.46 28.55 9.81L28.55 9.81L28.55 9.81Q28.36 9.86 28.18 9.86L28.18 9.86L28.18 9.86Q27.38 9.86 26.57 8.99L26.57 8.99L26.57 8.99Q26.03 8.40 26.03 7.46L26.03 7.46L26.03 7.46Q26.03 6.43 26.64 5.24L26.64 5.24L26.64 5.24Q26.91 4.73 27.29 4.37L27.29 4.37L27.29 4.37Q27.72 3.93 28.11 3.93L28.11 3.93L28.11 3.93Q28.34 3.93 28.53 4.10L28.53 4.10L28.53 4.10Q28.73 4.27 29.58 4.55L29.58 4.55L29.58 4.55Q30.25 4.77 30.53 5.31L30.53 5.31L30.53 5.31Q31.02 6.24 31.02 6.92L31.02 6.92L31.02 6.92Q31.02 7.29 30.88 7.60ZM29.76 6.73L29.76 6.73L29.76 6.73Q29.67 5.71 29.22 5.52L29.22 5.52L29.22 5.52Q29.15 5.49 29.09 5.49L29.09 5.49L29.09 5.49Q28.92 5.49 28.67 5.77L28.67 5.77L28.67 5.77Q28.39 6.09 28.24 6.15L28.24 6.15L28.24 6.15Q28.14 6.19 27.96 6.06L27.96 6.06L27.96 6.06Q27.78 5.94 27.72 5.94L27.72 5.94L27.72 5.94Q27.68 5.94 27.65 5.96L27.65 5.96L27.65 5.96Q27.16 6.38 27.16 7.27L27.16 7.27L27.16 7.27Q27.16 7.87 27.44 8.29L27.44 8.29L27.44 8.29Q27.83 8.86 28.10 8.86L28.10 8.86L28.10 8.86Q28.71 8.86 29.29 8.09L29.29 8.09L29.29 8.09Q29.83 7.36 29.76 6.73ZM35.49 5.78L35.49 5.78L35.49 5.78Q34.96 6.93 34.58 7.31L34.58 7.31L34.58 7.31Q33.99 7.90 33.94 7.95L33.94 7.95L33.94 7.95Q33.53 8.27 33.12 8.34L33.12 8.34L33.12 8.34Q33.07 8.62 33.07 9.00L33.07 9.00L33.07 9.00Q33.07 9.27 33.11 9.81L33.11 9.81L33.11 9.81Q33.15 10.35 33.15 10.60L33.15 10.60L33.15 10.60Q33.15 11.55 32.70 12.03L32.70 12.03L32.70 12.03Q32.70 12.03 32.31 11.82L32.31 11.82L32.31 11.82Q32.07 11.69 32.05 11.51L32.05 11.51L32.05 11.51Q31.91 10.60 31.91 9.48L31.91 9.48L31.91 9.48Q31.91 8.74 31.99 7.27L31.99 7.27L31.99 7.27Q32.07 5.80 32.07 5.04L32.07 5.04L32.07 5.04Q32.07 3.95 31.95 3.04L31.95 3.04L31.95 3.04Q31.84 3.08 31.74 2.90L31.74 2.90L31.74 2.90Q31.64 2.72 31.57 2.69L31.57 2.69L31.57 2.69Q31.64 2.24 31.81 2.24L31.81 2.24L31.81 2.24Q32.02 2.17 32.68 2.27L32.68 2.27L32.68 2.27Q34.50 2.56 35.42 3.86L35.42 3.86L35.42 3.86Q35.71 4.28 35.71 4.82L35.71 4.82L35.71 4.82Q35.71 5.28 35.49 5.78ZM34.58 4.70L34.58 4.70L34.58 4.70Q34.65 4.14 34.10 3.82L34.10 3.82L34.10 3.82Q34.08 3.82 33.10 3.42L33.10 3.42L33.10 3.42Q33.25 5.99 33.19 7.03L33.19 7.03L33.19 7.03Q34.44 5.85 34.58 4.70ZM41.17 2.80L41.17 2.80L41.17 2.80Q41.15 4.05 40.77 6.75L40.77 6.75L40.77 6.75Q40.42 9.31 40.42 10.68L40.42 10.68L40.42 10.68Q40.42 11.12 40.45 11.51L40.45 11.51L40.45 11.51Q40.45 11.61 40.36 11.70L40.36 11.70L40.36 11.70Q40.28 11.79 40.17 11.79L40.17 11.79L40.17 11.79Q39.77 11.79 39.65 11.72L39.65 11.72L39.65 11.72Q39.12 11.41 39.12 10.56L39.12 10.56L39.12 10.56Q39.12 10.39 39.14 10.03L39.14 10.03L39.14 10.03Q39.16 9.67 39.16 9.51L39.16 9.51L39.16 9.51Q39.16 9.23 39.23 8.65L39.23 8.65L39.23 8.65Q39.30 8.08 39.30 7.77L39.30 7.77L39.30 7.77Q39.10 7.78 38.76 7.71L38.76 7.71L38.76 7.71Q38.42 7.64 38.26 7.64L38.26 7.64L38.26 7.64Q38.08 7.64 37.91 7.70L37.91 7.70L37.91 7.70Q37.58 8.81 37.52 10.96L37.52 10.96L37.52 10.96Q37.04 11.16 36.60 10.92L36.60 10.92L36.60 10.92Q36.27 10.75 36.27 10.25L36.27 10.25L36.27 10.25Q36.27 10.14 36.30 9.95L36.30 9.95L36.30 9.95Q36.32 9.76 36.32 9.72L36.32 9.72L36.32 9.72Q36.36 8.96 36.64 6.72L36.64 6.72L36.64 6.72Q36.88 4.84 36.86 3.74L36.86 3.74L36.86 3.74Q36.86 3.58 37.08 3.54L37.08 3.54L37.08 3.54Q37.30 3.50 37.32 3.46L37.32 3.46L37.32 3.46Q37.41 3.56 37.73 3.63L37.73 3.63L37.73 3.63Q38.00 3.68 38.05 3.88L38.05 3.88L38.05 3.88Q38.16 4.23 38.16 4.66L38.16 4.66L38.16 4.66Q38.16 4.97 38.07 5.63L38.07 5.63L38.07 5.63Q37.98 6.30 37.98 6.65L37.98 6.65L37.98 6.65Q38.15 6.78 38.40 6.80L38.40 6.80L38.40 6.80Q38.57 6.83 38.88 6.82L38.88 6.82L38.88 6.82Q39.28 6.79 39.37 6.79L39.37 6.79L39.37 6.79Q39.72 5.32 39.98 2.98L39.98 2.98L39.98 2.98Q40.04 2.49 40.33 2.49L40.33 2.49L40.33 2.49Q41.08 2.42 41.17 2.80ZM46.89 3.63L46.89 3.63L46.89 3.63Q46.37 3.84 45.36 4.12L45.36 4.12L45.36 4.12Q44.35 4.40 43.83 4.61L43.83 4.61L43.83 4.61Q43.71 4.97 43.65 6.23L43.65 6.23L43.65 6.23Q43.88 6.31 44.17 6.31L44.17 6.31L44.17 6.31Q44.38 6.31 44.83 6.24L44.83 6.24L44.83 6.24Q45.28 6.17 45.49 6.17L45.49 6.17L45.49 6.17Q45.88 6.17 46.16 6.34L46.16 6.34L46.16 6.34Q46.35 6.62 46.35 6.71L46.35 6.71L46.35 6.71Q46.35 6.80 46.26 6.86L46.26 6.86L46.26 6.86Q46.23 6.87 46.06 7.06L46.06 7.06L46.06 7.06Q45.95 7.18 45.78 7.17L45.78 7.17L45.78 7.17Q45.49 7.24 44.70 7.25L44.70 7.25L44.70 7.25Q44.04 7.27 43.65 7.42L43.65 7.42L43.65 7.42Q43.39 8.46 43.39 9.06L43.39 9.06L43.39 9.06Q43.39 9.46 43.50 9.70L43.50 9.70L43.50 9.70Q44.16 10.16 45.78 10.09L45.78 10.09L45.78 10.09Q45.89 10.09 46.02 9.99L46.02 9.99L46.02 9.99Q46.14 9.88 46.23 9.88L46.23 9.88L46.23 9.88Q46.62 9.80 46.75 10.47L46.75 10.47L46.75 10.47Q46.79 10.70 46.67 10.88L46.67 10.88L46.67 10.88Q46.55 11.07 46.33 11.09L46.33 11.09L46.33 11.09Q44.63 11.14 43.39 10.82L43.39 10.82L43.39 10.82Q42.99 10.72 42.67 10.39L42.67 10.39L42.67 10.39Q42.35 10.05 42.31 9.63L42.31 9.63L42.31 9.63Q42.18 8.41 42.31 7.45L42.31 7.45L42.31 7.45Q41.92 7.18 41.96 6.93L41.96 6.93L41.96 6.93Q41.97 6.80 42.17 6.70L42.17 6.70L42.17 6.70Q42.38 6.59 42.41 6.48L42.41 6.48L42.41 6.48Q42.43 6.37 42.52 5.15L42.52 5.15L42.52 5.15Q41.73 5.00 41.75 4.56L41.75 4.56L41.75 4.56Q41.76 4.16 42.24 3.92L42.24 3.92L42.24 3.92Q42.69 3.74 43.13 3.56L43.13 3.56L43.13 3.56Q43.67 3.29 44.45 3.08L44.45 3.08L44.45 3.08Q45.12 2.90 45.81 2.73L45.81 2.73L45.81 2.73Q45.88 2.72 45.98 2.72L45.98 2.72L45.98 2.72Q46.35 2.72 46.86 3.01L46.86 3.01L46.86 3.01Q46.87 3.07 46.93 3.22L46.93 3.22L46.93 3.22Q46.98 3.37 46.98 3.44L46.98 3.44L46.98 3.44Q46.98 3.56 46.89 3.63ZM52.91 10.72L52.91 10.72L52.91 10.72Q52.95 10.78 52.95 10.85L52.95 10.85L52.95 10.85Q52.95 11.17 52.28 11.34L52.28 11.34L52.28 11.34Q51.53 10.77 50.43 9.58L50.43 9.58L50.43 9.58Q49.20 8.25 48.59 7.73L48.59 7.73L48.59 7.73Q48.55 8.09 48.44 9.63L48.44 9.63L48.44 9.63Q48.37 10.79 48.19 11.48L48.19 11.48L48.19 11.48Q48.16 11.48 48.01 11.55L48.01 11.55L48.01 11.55Q47.87 11.62 47.77 11.59L47.77 11.59L47.77 11.59Q47.15 11.45 47.15 10.74L47.15 10.74L47.15 10.74Q47.15 10.53 47.21 10.18L47.21 10.18L47.21 10.18Q47.26 9.77 47.28 9.67L47.28 9.67L47.28 9.67Q47.33 8.86 47.35 7.74L47.35 7.74L47.35 6.22L47.35 6.22Q47.35 4.31 47.56 3.01L47.56 3.01L47.56 3.01Q47.70 2.14 49.20 2.21L49.20 2.21L49.20 2.21Q49.95 2.24 50.51 2.97L50.51 2.97L50.51 2.97Q51.03 3.64 51.03 4.42L51.03 4.42L51.03 4.42Q51.03 5.08 50.54 5.74L50.54 5.74L50.54 5.74Q50.12 6.33 49.50 6.66L49.50 6.66L49.50 6.66Q49.25 6.80 49.25 6.97L49.25 6.97L49.25 6.97Q49.25 7.15 49.55 7.41L49.55 7.41L49.55 7.41Q49.77 7.59 49.99 7.77L49.99 7.77L49.99 7.77Q50.01 7.78 51.53 9.17L51.53 9.17L51.53 9.17Q52.50 10.04 52.91 10.72ZM49.95 4.44L49.95 4.44L49.95 4.44Q49.99 4.19 49.98 3.99L49.98 3.99L49.98 3.99Q49.94 3.70 49.73 3.46L49.73 3.46L49.73 3.46Q49.53 3.22 49.08 3.22L49.08 3.22L49.08 3.22Q48.75 3.22 48.66 3.43L48.66 3.43L48.66 3.43Q48.59 3.78 48.59 4.23L48.59 4.23L48.59 4.23Q48.59 4.41 48.64 5.17L48.64 5.17L48.64 5.17Q48.66 5.74 48.64 6.10L48.64 6.10L48.64 6.10Q49.80 5.24 49.95 4.44ZM61.89 2.59L61.89 2.59L61.89 2.59Q61.35 3.61 60.34 6.41L60.34 6.41L60.34 6.41Q60.05 7.24 59.64 9.14L59.64 9.14L59.64 9.14Q59.25 10.96 58.88 11.90L58.88 11.90L58.88 11.90Q58.76 12.04 58.59 12.04L58.59 12.04L58.59 12.04Q58.39 12.04 58.09 11.83L58.09 11.83L58.09 11.83Q57.54 10.53 56.81 7.55L56.81 7.55L56.81 7.55Q56.13 4.70 55.44 3.22L55.44 3.22L55.44 3.22Q55.62 2.87 55.75 2.87L55.75 2.87L55.75 2.87Q55.86 2.80 55.97 2.80L55.97 2.80L55.97 2.80Q56.20 2.80 56.76 3.22L56.76 3.22L56.76 3.22Q57.26 4.37 57.72 6.03L57.72 6.03L57.72 6.03Q58.09 7.48 58.46 8.90L58.46 8.90L58.46 8.90Q58.98 7.20 59.50 5.47L59.50 5.47L59.50 5.47Q60.12 3.54 60.76 2.14L60.76 2.14L60.76 2.14Q60.97 1.78 61.49 1.90L61.49 1.90L61.49 1.90Q61.54 1.92 61.63 2.01L61.63 2.01L61.63 2.01Q61.71 2.10 61.84 2.11L61.84 2.11L61.84 2.11Q61.96 2.11 61.96 2.31L61.96 2.31L61.96 2.31Q61.96 2.45 61.89 2.59ZM67.20 9.95L67.20 9.95L67.20 9.95Q67.28 10.18 67.28 10.35L67.28 10.35L67.28 10.35Q67.28 10.63 67.05 10.84L67.05 10.84L67.05 10.84Q66.81 11.05 66.72 11.03L66.72 11.03L66.72 11.03Q66.04 10.91 65.86 9.93L65.86 9.93L65.86 9.93Q65.66 8.86 65.39 8.15L65.39 8.15L65.39 8.15Q64.92 8.19 64.44 8.23L64.44 8.23L64.44 8.23Q63.90 8.30 63.59 8.57L63.59 8.57L63.59 8.57Q63.43 9.00 63.18 10.11L63.18 10.11L63.18 10.11Q62.94 11.13 62.72 11.66L62.72 11.66L62.72 11.66Q62.61 11.91 62.24 11.80L62.24 11.80L62.24 11.80Q61.78 11.65 61.75 11.38L61.75 11.38L61.75 11.38Q61.71 10.85 62.06 9.95L62.06 9.95L62.06 9.95Q62.48 8.93 62.52 8.50L62.52 8.50L62.52 8.50Q62.54 8.37 62.34 8.22L62.34 8.22L62.34 8.22Q62.15 8.06 62.15 7.98L62.15 7.98L62.15 7.98Q62.15 7.91 62.21 7.83L62.21 7.83L62.21 7.83Q62.27 7.76 62.50 7.71L62.50 7.71L62.50 7.71Q62.73 7.66 62.76 7.56L62.76 7.56L62.76 7.56Q63.01 6.86 63.56 4.96L63.56 4.96L63.56 4.96Q64.02 3.30 64.39 2.42L64.39 2.42L64.39 2.42Q64.47 2.23 64.74 2.23L64.74 2.23L64.74 2.23Q64.93 2.23 65.09 2.35L65.09 2.35L65.09 2.35Q65.48 2.69 65.59 3.36L65.59 3.36L65.59 3.36Q65.67 3.93 65.74 4.51L65.74 4.51L65.74 4.51Q66.44 7.81 67.20 9.95ZM65.16 7.28L65.16 7.28L65.16 7.28Q65.11 6.76 64.97 6.12L64.97 6.12L64.97 6.12Q64.83 5.56 64.71 5.00L64.71 5.00L64.71 5.00Q64.29 6.16 63.98 7.32L63.98 7.32L63.98 7.32Q64.20 7.28 65.16 7.28ZM73.42 10.72L73.42 10.72L73.42 10.72Q73.46 10.78 73.46 10.85L73.46 10.85L73.46 10.85Q73.46 11.17 72.79 11.34L72.79 11.34L72.79 11.34Q72.04 10.77 70.94 9.58L70.94 9.58L70.94 9.58Q69.71 8.25 69.10 7.73L69.10 7.73L69.10 7.73Q69.06 8.09 68.95 9.63L68.95 9.63L68.95 9.63Q68.88 10.79 68.70 11.48L68.70 11.48L68.70 11.48Q68.67 11.48 68.52 11.55L68.52 11.55L68.52 11.55Q68.38 11.62 68.28 11.59L68.28 11.59L68.28 11.59Q67.66 11.45 67.66 10.74L67.66 10.74L67.66 10.74Q67.66 10.53 67.72 10.18L67.72 10.18L67.72 10.18Q67.77 9.77 67.79 9.67L67.79 9.67L67.79 9.67Q67.84 8.86 67.86 7.74L67.86 7.74L67.86 6.22L67.86 6.22Q67.86 4.31 68.07 3.01L68.07 3.01L68.07 3.01Q68.21 2.14 69.71 2.21L69.71 2.21L69.71 2.21Q70.46 2.24 71.02 2.97L71.02 2.97L71.02 2.97Q71.54 3.64 71.54 4.42L71.54 4.42L71.54 4.42Q71.54 5.08 71.05 5.74L71.05 5.74L71.05 5.74Q70.63 6.33 70.01 6.66L70.01 6.66L70.01 6.66Q69.76 6.80 69.76 6.97L69.76 6.97L69.76 6.97Q69.76 7.15 70.06 7.41L70.06 7.41L70.06 7.41Q70.28 7.59 70.50 7.77L70.50 7.77L70.50 7.77Q70.52 7.78 72.04 9.17L72.04 9.17L72.04 9.17Q73.01 10.04 73.42 10.72ZM70.46 4.44L70.46 4.44L70.46 4.44Q70.50 4.19 70.49 3.99L70.49 3.99L70.49 3.99Q70.45 3.70 70.25 3.46L70.25 3.46L70.25 3.46Q70.04 3.22 69.59 3.22L69.59 3.22L69.59 3.22Q69.26 3.22 69.17 3.43L69.17 3.43L69.17 3.43Q69.10 3.78 69.10 4.23L69.10 4.23L69.10 4.23Q69.10 4.41 69.15 5.17L69.15 5.17L69.15 5.17Q69.17 5.74 69.15 6.10L69.15 6.10L69.15 6.10Q70.31 5.24 70.46 4.44ZM77.74 7.13L77.74 7.13L77.74 7.13Q77.36 8.06 77.25 9.44L77.25 9.44L77.25 9.44Q77.18 10.63 77.13 11.82L77.13 11.82L77.13 11.82Q77.10 12.17 76.66 12.17L76.66 12.17L76.66 12.17Q76.54 12.17 76.43 12.12L76.43 12.12L76.43 12.12Q75.82 11.87 75.82 11.19L75.82 11.19L75.82 11.19Q75.82 10.99 75.88 10.59L75.88 10.59L75.88 10.59Q75.94 10.19 75.94 10.01L75.94 10.01L75.94 10.01Q75.99 9.60 76.08 8.79L76.08 8.79L76.08 8.79Q75.11 9.70 73.89 10.15L73.89 10.15L73.89 10.15Q73.72 10.21 73.56 10.21L73.56 10.21L73.56 10.21Q72.91 10.21 72.37 9.48L72.37 9.48L72.37 9.48Q72.06 9.07 72.06 8.47L72.06 8.47L72.06 8.47Q72.06 7.94 72.30 7.22L72.30 7.22L72.30 7.22Q73.04 4.96 74.66 2.79L74.66 2.79L74.66 2.79Q75.47 1.71 76.10 1.71L76.10 1.71L76.10 1.71Q76.66 1.71 76.73 2.13L76.73 2.13L76.73 2.13Q76.79 2.48 76.50 2.63L76.50 2.63L76.50 2.63Q76.01 2.90 75.98 2.93L75.98 2.93L75.98 2.93Q74.80 4.23 73.82 6.29L73.82 6.29L73.82 6.29Q73.22 7.56 73.22 8.57L73.22 8.57L73.22 8.57Q73.22 8.75 73.23 8.93L73.23 8.93L73.23 8.93Q73.26 8.95 73.32 9.06L73.32 9.06L73.32 9.06Q73.37 9.18 73.47 9.14L73.47 9.14L73.47 9.14Q74.40 8.78 76.26 7.22L76.26 7.22L76.26 7.22Q76.40 7.11 76.58 6.58L76.58 6.58L76.58 6.58Q76.72 6.19 77.08 6.19L77.08 6.19L77.08 6.19Q76.97 6.19 77.31 6.16L77.31 6.16L77.31 6.16Q77.48 6.13 77.53 6.22L77.53 6.22L77.53 6.22Q77.80 6.61 77.80 6.86L77.80 6.86L77.80 6.86Q77.80 6.99 77.74 7.13ZM83.72 9.95L83.72 9.95L83.72 9.95Q83.80 10.18 83.80 10.35L83.80 10.35L83.80 10.35Q83.80 10.63 83.57 10.84L83.57 10.84L83.57 10.84Q83.33 11.05 83.24 11.03L83.24 11.03L83.24 11.03Q82.56 10.91 82.38 9.93L82.38 9.93L82.38 9.93Q82.18 8.86 81.91 8.15L81.91 8.15L81.91 8.15Q81.44 8.19 80.96 8.23L80.96 8.23L80.96 8.23Q80.42 8.30 80.11 8.57L80.11 8.57L80.11 8.57Q79.95 9.00 79.70 10.11L79.70 10.11L79.70 10.11Q79.46 11.13 79.24 11.66L79.24 11.66L79.24 11.66Q79.13 11.91 78.76 11.80L78.76 11.80L78.76 11.80Q78.30 11.65 78.27 11.38L78.27 11.38L78.27 11.38Q78.23 10.85 78.58 9.95L78.58 9.95L78.58 9.95Q79.00 8.93 79.04 8.50L79.04 8.50L79.04 8.50Q79.06 8.37 78.86 8.22L78.86 8.22L78.86 8.22Q78.67 8.06 78.67 7.98L78.67 7.98L78.67 7.98Q78.67 7.91 78.73 7.83L78.73 7.83L78.73 7.83Q78.79 7.76 79.02 7.71L79.02 7.71L79.02 7.71Q79.25 7.66 79.28 7.56L79.28 7.56L79.28 7.56Q79.53 6.86 80.08 4.96L80.08 4.96L80.08 4.96Q80.54 3.30 80.91 2.42L80.91 2.42L80.91 2.42Q80.99 2.23 81.26 2.23L81.26 2.23L81.26 2.23Q81.45 2.23 81.61 2.35L81.61 2.35L81.61 2.35Q82.00 2.69 82.11 3.36L82.11 3.36L82.11 3.36Q82.19 3.93 82.26 4.51L82.26 4.51L82.26 4.51Q82.96 7.81 83.72 9.95ZM81.68 7.28L81.68 7.28L81.68 7.28Q81.63 6.76 81.49 6.12L81.49 6.12L81.49 6.12Q81.35 5.56 81.23 5.00L81.23 5.00L81.23 5.00Q80.81 6.16 80.50 7.32L80.50 7.32L80.50 7.32Q80.72 7.28 81.68 7.28ZM87.21 2.16L87.21 2.16L87.21 2.16Q87.21 2.44 86.80 2.65L86.80 2.65L86.80 2.65Q86.69 2.70 86.56 2.66L86.56 2.66L86.56 2.66Q86.37 2.60 86.35 2.60L86.35 2.60L86.35 2.60Q86.27 2.60 86.18 2.69L86.18 2.69L86.18 2.69Q85.43 3.44 85.43 4.54L85.43 4.54L85.43 4.54Q85.43 4.94 85.55 5.29L85.55 5.29L85.55 5.29Q85.61 5.45 86.62 7.46L86.62 7.46L86.62 7.46Q87.29 8.81 87.29 9.74L87.29 9.74L87.29 9.74Q87.29 10.51 86.91 11.23L86.91 11.23L86.91 11.23Q86.79 11.47 86.28 11.84L86.28 11.84L86.28 11.84Q85.88 12.14 85.55 12.14L85.55 12.14L85.55 12.14Q85.43 12.14 85.32 12.10L85.32 12.10L85.32 12.10Q84.90 11.91 84.90 11.63L84.90 11.63L84.90 11.63Q84.90 11.47 85.11 11.23L85.11 11.23L85.11 11.23Q85.16 11.16 85.37 11.14L85.37 11.14L85.37 11.14Q85.58 11.13 85.65 10.98L85.65 10.98L85.65 10.98Q85.95 10.36 85.95 9.72L85.95 9.72L85.95 9.72Q85.95 8.81 85.04 7.08L85.04 7.08L85.04 7.08Q84.14 5.35 84.14 4.31L84.14 4.31L84.14 4.31Q84.14 3.46 84.48 2.79L84.48 2.79L84.48 2.79Q84.85 2.02 85.55 1.68L85.55 1.68L85.55 1.68Q85.88 1.53 86.18 1.53L86.18 1.53L86.18 1.53Q86.77 1.53 87.07 1.85L87.07 1.85L87.07 1.85Q87.21 2.00 87.21 2.16Z"></path></g><!----><!----><g data-v-423bf9ae="" id="5278f6a1-c8f0-471b-a130-e5d393591187" fill="#000000" transform="matrix(5.110732637968813,0,0,5.110732637968813,215.5902442216983,126.61158897091056)"><path d="M6.61 1.74L6.61 1.74L6.61 1.74Q6.61 2.02 6.43 2.25L6.43 2.25L6.43 2.25Q6.26 2.48 5.98 2.53L5.98 2.53L5.98 2.53Q5.87 2.56 5.67 2.47L5.67 2.47L5.67 2.47Q5.47 2.38 5.36 2.39L5.36 2.39L5.36 2.39Q4.75 2.45 3.85 2.83L3.85 2.83L3.85 2.83Q2.72 3.30 2.37 3.40L2.37 3.40L2.37 3.40Q2.31 4.28 2.31 5.19L2.31 5.19L2.31 5.19Q2.31 6.10 2.37 7.01L2.37 7.01L2.37 7.01Q2.48 7.04 2.60 7.04L2.60 7.04L2.60 7.04Q2.88 7.04 3.61 6.82L3.61 6.82L3.61 6.82Q4.30 6.62 4.66 6.66L4.66 6.66L4.66 6.66Q4.97 6.69 4.94 6.90L4.94 6.90L4.94 6.90Q4.86 7.45 4.24 7.74L4.24 7.74L4.24 7.74Q3.67 7.92 3.09 8.12L3.09 8.12L3.09 8.12Q2.87 8.15 2.37 8.26L2.37 8.26L2.37 8.26Q2.34 8.54 2.34 8.89L2.34 8.89L2.34 8.89Q2.34 9.23 2.37 9.91L2.37 9.91L2.37 9.91Q2.41 10.60 2.41 10.93L2.41 10.93L2.41 10.93Q2.41 12.14 2.03 12.84L2.03 12.84L2.03 12.84Q1.95 12.99 1.78 12.99L1.78 12.99L1.78 12.99Q1.61 12.99 1.43 12.84L1.43 12.84L1.43 12.84Q1.25 12.68 1.19 12.50L1.19 12.50L1.19 12.50Q1.05 12.07 1.05 11.49L1.05 11.49L1.05 11.49Q1.05 11.30 1.15 10.14L1.15 10.14L1.15 10.14Q1.22 9.30 1.12 8.78L1.12 8.78L1.12 8.78Q1.09 8.60 0.84 8.48L0.84 8.48L0.84 8.48Q0.52 8.34 0.43 8.26L0.43 8.26L0.43 8.26Q0.39 8.16 0.46 7.70L0.46 7.70L0.46 7.70Q0.63 7.73 0.75 7.59L0.75 7.59L0.75 7.59Q0.87 7.45 0.98 7.45L0.98 7.45L0.98 7.45Q1.04 7.45 1.09 7.46L1.09 7.46L1.09 7.46Q1.23 6.78 1.23 5.92L1.23 5.92L1.23 5.92Q1.23 5.63 1.12 3.75L1.12 3.75L1.12 3.75Q0.85 3.68 0.59 3.42L0.59 3.42L0.59 3.42Q0.34 3.16 0.34 2.91L0.34 2.91L0.34 2.91Q0.34 2.56 0.84 2.49L0.84 2.49L0.84 2.49Q1.53 2.39 3.37 1.79L3.37 1.79L3.37 1.79Q5.00 1.26 5.98 1.25L5.98 1.25L5.98 1.25Q6.23 1.25 6.42 1.38L6.42 1.38L6.42 1.38Q6.61 1.51 6.61 1.74ZM11.45 10.72L11.45 10.72L11.45 10.72Q11.49 10.78 11.49 10.85L11.49 10.85L11.49 10.85Q11.49 11.17 10.82 11.34L10.82 11.34L10.82 11.34Q10.08 10.77 8.97 9.58L8.97 9.58L8.97 9.58Q7.74 8.25 7.14 7.73L7.14 7.73L7.14 7.73Q7.10 8.09 6.99 9.63L6.99 9.63L6.99 9.63Q6.92 10.79 6.73 11.48L6.73 11.48L6.73 11.48Q6.71 11.48 6.56 11.55L6.56 11.55L6.56 11.55Q6.41 11.62 6.31 11.59L6.31 11.59L6.31 11.59Q5.70 11.45 5.70 10.74L5.70 10.74L5.70 10.74Q5.70 10.53 5.75 10.18L5.75 10.18L5.75 10.18Q5.81 9.77 5.82 9.67L5.82 9.67L5.82 9.67Q5.88 8.86 5.89 7.74L5.89 7.74L5.89 6.22L5.89 6.22Q5.89 4.31 6.10 3.01L6.10 3.01L6.10 3.01Q6.24 2.14 7.74 2.21L7.74 2.21L7.74 2.21Q8.50 2.24 9.06 2.97L9.06 2.97L9.06 2.97Q9.58 3.64 9.58 4.42L9.58 4.42L9.58 4.42Q9.58 5.08 9.09 5.74L9.09 5.74L9.09 5.74Q8.67 6.33 8.05 6.66L8.05 6.66L8.05 6.66Q7.80 6.80 7.80 6.97L7.80 6.97L7.80 6.97Q7.80 7.15 8.09 7.41L8.09 7.41L8.09 7.41Q8.32 7.59 8.54 7.77L8.54 7.77L8.54 7.77Q8.55 7.78 10.08 9.17L10.08 9.17L10.08 9.17Q11.05 10.04 11.45 10.72ZM8.50 4.44L8.50 4.44L8.50 4.44Q8.54 4.19 8.53 3.99L8.53 3.99L8.53 3.99Q8.48 3.70 8.28 3.46L8.28 3.46L8.28 3.46Q8.08 3.22 7.63 3.22L7.63 3.22L7.63 3.22Q7.29 3.22 7.21 3.43L7.21 3.43L7.21 3.43Q7.14 3.78 7.14 4.23L7.14 4.23L7.14 4.23Q7.14 4.41 7.18 5.17L7.18 5.17L7.18 5.17Q7.21 5.74 7.18 6.10L7.18 6.10L7.18 6.10Q8.34 5.24 8.50 4.44ZM15.48 7.60L15.48 7.60L15.48 7.60Q14.66 9.46 13.15 9.81L13.15 9.81L13.15 9.81Q12.96 9.86 12.78 9.86L12.78 9.86L12.78 9.86Q11.98 9.86 11.17 8.99L11.17 8.99L11.17 8.99Q10.63 8.40 10.63 7.46L10.63 7.46L10.63 7.46Q10.63 6.43 11.24 5.24L11.24 5.24L11.24 5.24Q11.51 4.73 11.89 4.37L11.89 4.37L11.89 4.37Q12.32 3.93 12.71 3.93L12.71 3.93L12.71 3.93Q12.94 3.93 13.13 4.10L13.13 4.10L13.13 4.10Q13.33 4.27 14.18 4.55L14.18 4.55L14.18 4.55Q14.85 4.77 15.13 5.31L15.13 5.31L15.13 5.31Q15.62 6.24 15.62 6.92L15.62 6.92L15.62 6.92Q15.62 7.29 15.48 7.60ZM14.36 6.73L14.36 6.73L14.36 6.73Q14.27 5.71 13.82 5.52L13.82 5.52L13.82 5.52Q13.75 5.49 13.69 5.49L13.69 5.49L13.69 5.49Q13.52 5.49 13.27 5.77L13.27 5.77L13.27 5.77Q12.99 6.09 12.84 6.15L12.84 6.15L12.84 6.15Q12.74 6.19 12.56 6.06L12.56 6.06L12.56 6.06Q12.38 5.94 12.32 5.94L12.32 5.94L12.32 5.94Q12.28 5.94 12.25 5.96L12.25 5.96L12.25 5.96Q11.76 6.38 11.76 7.27L11.76 7.27L11.76 7.27Q11.76 7.87 12.04 8.29L12.04 8.29L12.04 8.29Q12.43 8.86 12.70 8.86L12.70 8.86L12.70 8.86Q13.31 8.86 13.89 8.09L13.89 8.09L13.89 8.09Q14.43 7.36 14.36 6.73ZM22.04 2.14L22.04 2.14L22.04 2.14Q21.84 4.02 21.66 5.91L21.66 5.91L21.66 5.91Q21.42 8.15 21.42 9.65L21.42 9.65L21.42 9.65Q21.42 10.14 21.45 10.61L21.45 10.61L21.45 10.61Q21.46 10.84 21.29 11.00L21.29 11.00L21.29 11.00Q21.11 11.17 20.89 11.17L20.89 11.17L20.89 11.17Q20.45 11.17 20.16 10.58L20.16 10.58L20.16 10.58Q19.26 8.83 17.93 5.10L17.93 5.10L17.93 5.10Q17.91 5.01 17.86 5.01L17.86 5.01L17.86 5.01Q17.77 5.01 17.74 5.21L17.74 5.21L17.74 5.21Q17.50 7.21 17.50 9.42L17.50 9.42L17.50 9.42Q17.50 10.49 17.56 11.59L17.56 11.59L17.56 11.59Q17.57 12.00 17.32 12.15L17.32 12.15L17.32 12.15Q17.22 12.25 17.11 12.25L17.11 12.25L17.11 12.25Q17.01 12.25 16.86 12.17L16.86 12.17L16.86 12.17Q16.65 12.07 16.59 12.04L16.59 12.04L16.59 12.04Q16.41 11.98 16.37 11.70L16.37 11.70L16.37 11.70Q16.35 11.48 16.34 11.24L16.34 11.24L16.34 11.24Q16.30 10.46 16.30 9.60L16.30 9.60L16.30 9.60Q16.30 8.12 16.46 5.89L16.46 5.89L16.46 5.89Q16.73 2.51 16.76 2.14L16.76 2.14L16.76 2.14Q16.77 1.83 17.28 1.83L17.28 1.83L17.28 1.83Q17.51 1.81 17.98 2.18L17.98 2.18L17.98 2.18Q18.42 3.04 19.08 4.96L19.08 4.96L19.08 4.96Q19.71 6.79 20.23 7.74L20.23 7.74L20.23 7.74Q20.44 5.88 20.89 2.11L20.89 2.11L20.89 2.11Q20.93 1.83 21.29 1.83L21.29 1.83L21.29 1.83Q21.42 1.83 21.59 1.88L21.59 1.88L21.59 1.88Q21.81 1.93 21.85 1.95L21.85 1.95L21.85 1.95Q21.99 2.00 22.04 2.14ZM29.81 1.90L29.81 1.90L29.81 1.90Q29.68 2.41 29.33 2.49L29.33 2.49L29.33 2.49Q28.42 2.72 26.17 3.08L26.17 3.08L26.17 3.08Q25.89 6.57 25.89 8.89L25.89 8.89L25.89 8.89Q25.89 9.77 25.91 10.63L25.91 10.63L25.91 10.63Q25.93 10.89 25.89 11.03L25.89 11.03L25.89 11.03Q25.82 11.26 25.61 11.24L25.61 11.24L25.61 11.24Q25.20 11.23 24.93 10.90L24.93 10.90L24.93 10.90Q24.67 10.57 24.64 10.16L24.64 10.16L24.64 10.16Q24.61 9.65 24.61 9.07L24.61 9.07L24.61 9.07Q24.61 8.15 24.74 6.15L24.74 6.15L24.74 6.15Q24.86 4.23 24.85 3.22L24.85 3.22L24.85 3.22Q24.47 3.19 23.80 3.29L23.80 3.29L23.80 3.29Q23.03 3.40 22.74 3.40L22.74 3.40L22.74 3.40Q22.05 3.40 21.62 3.04L21.62 3.04L21.62 3.04Q21.45 2.67 21.45 2.66L21.45 2.66L21.45 2.66Q21.45 2.56 21.55 2.45L21.55 2.45L21.55 2.45Q21.99 2.30 23.38 2.17L23.38 2.17L23.38 2.17Q24.60 2.04 25.20 1.72L25.20 1.72L25.20 1.72Q25.69 1.88 26.32 1.88L26.32 1.88L26.32 1.88Q26.95 1.88 27.52 1.72L27.52 1.72L27.52 1.72Q27.69 1.71 28.38 1.53L28.38 1.53L28.38 1.53Q28.88 1.40 29.22 1.44L29.22 1.44L29.22 1.44Q29.47 1.44 29.43 1.65L29.43 1.65L29.43 1.65Q29.81 1.65 29.81 1.90ZM32.75 3.63L32.75 3.63L32.75 3.63Q32.23 3.84 31.22 4.12L31.22 4.12L31.22 4.12Q30.21 4.40 29.69 4.61L29.69 4.61L29.69 4.61Q29.57 4.97 29.51 6.23L29.51 6.23L29.51 6.23Q29.74 6.31 30.03 6.31L30.03 6.31L30.03 6.31Q30.24 6.31 30.69 6.24L30.69 6.24L30.69 6.24Q31.14 6.17 31.35 6.17L31.35 6.17L31.35 6.17Q31.74 6.17 32.02 6.34L32.02 6.34L32.02 6.34Q32.21 6.62 32.21 6.71L32.21 6.71L32.21 6.71Q32.21 6.80 32.12 6.86L32.12 6.86L32.12 6.86Q32.09 6.87 31.92 7.06L31.92 7.06L31.92 7.06Q31.81 7.18 31.64 7.17L31.64 7.17L31.64 7.17Q31.35 7.24 30.56 7.25L30.56 7.25L30.56 7.25Q29.90 7.27 29.51 7.42L29.51 7.42L29.51 7.42Q29.25 8.46 29.25 9.06L29.25 9.06L29.25 9.06Q29.25 9.46 29.36 9.70L29.36 9.70L29.36 9.70Q30.02 10.16 31.64 10.09L31.64 10.09L31.64 10.09Q31.75 10.09 31.88 9.99L31.88 9.99L31.88 9.99Q32.00 9.88 32.09 9.88L32.09 9.88L32.09 9.88Q32.48 9.80 32.61 10.47L32.61 10.47L32.61 10.47Q32.65 10.70 32.53 10.88L32.53 10.88L32.53 10.88Q32.41 11.07 32.19 11.09L32.19 11.09L32.19 11.09Q30.49 11.14 29.25 10.82L29.25 10.82L29.25 10.82Q28.85 10.72 28.53 10.39L28.53 10.39L28.53 10.39Q28.21 10.05 28.17 9.63L28.17 9.63L28.17 9.63Q28.04 8.41 28.17 7.45L28.17 7.45L28.17 7.45Q27.78 7.18 27.82 6.93L27.82 6.93L27.82 6.93Q27.83 6.80 28.04 6.70L28.04 6.70L28.04 6.70Q28.24 6.59 28.27 6.48L28.27 6.48L28.27 6.48Q28.29 6.37 28.38 5.15L28.38 5.15L28.38 5.15Q27.59 5.00 27.61 4.56L27.61 4.56L27.61 4.56Q27.62 4.16 28.10 3.92L28.10 3.92L28.10 3.92Q28.55 3.74 28.99 3.56L28.99 3.56L28.99 3.56Q29.53 3.29 30.31 3.08L30.31 3.08L30.31 3.08Q30.98 2.90 31.67 2.73L31.67 2.73L31.67 2.73Q31.74 2.72 31.84 2.72L31.84 2.72L31.84 2.72Q32.21 2.72 32.72 3.01L32.72 3.01L32.72 3.01Q32.73 3.07 32.79 3.22L32.79 3.22L32.79 3.22Q32.84 3.37 32.84 3.44L32.84 3.44L32.84 3.44Q32.84 3.56 32.75 3.63ZM38.99 2.14L38.99 2.14L38.99 2.14Q38.79 4.02 38.61 5.91L38.61 5.91L38.61 5.91Q38.37 8.15 38.37 9.65L38.37 9.65L38.37 9.65Q38.37 10.14 38.40 10.61L38.40 10.61L38.40 10.61Q38.42 10.84 38.24 11.00L38.24 11.00L38.24 11.00Q38.07 11.17 37.84 11.17L37.84 11.17L37.84 11.17Q37.41 11.17 37.11 10.58L37.11 10.58L37.11 10.58Q36.22 8.83 34.89 5.10L34.89 5.10L34.89 5.10Q34.86 5.01 34.82 5.01L34.82 5.01L34.82 5.01Q34.72 5.01 34.69 5.21L34.69 5.21L34.69 5.21Q34.45 7.21 34.45 9.42L34.45 9.42L34.45 9.42Q34.45 10.49 34.51 11.59L34.51 11.59L34.51 11.59Q34.52 12.00 34.27 12.15L34.27 12.15L34.27 12.15Q34.17 12.25 34.06 12.25L34.06 12.25L34.06 12.25Q33.96 12.25 33.81 12.17L33.81 12.17L33.81 12.17Q33.60 12.07 33.54 12.04L33.54 12.04L33.54 12.04Q33.36 11.98 33.32 11.70L33.32 11.70L33.32 11.70Q33.31 11.48 33.29 11.24L33.29 11.24L33.29 11.24Q33.25 10.46 33.25 9.60L33.25 9.60L33.25 9.60Q33.25 8.12 33.42 5.89L33.42 5.89L33.42 5.89Q33.68 2.51 33.71 2.14L33.71 2.14L33.71 2.14Q33.73 1.83 34.23 1.83L34.23 1.83L34.23 1.83Q34.47 1.81 34.93 2.18L34.93 2.18L34.93 2.18Q35.38 3.04 36.04 4.96L36.04 4.96L36.04 4.96Q36.67 6.79 37.18 7.74L37.18 7.74L37.18 7.74Q37.39 5.88 37.84 2.11L37.84 2.11L37.84 2.11Q37.88 1.83 38.25 1.83L38.25 1.83L38.25 1.83Q38.37 1.83 38.54 1.88L38.54 1.88L38.54 1.88Q38.77 1.93 38.81 1.95L38.81 1.95L38.81 1.95Q38.95 2.00 38.99 2.14ZM43.76 7.53L43.76 7.53L43.76 7.53Q43.62 7.85 43.50 8.18L43.50 8.18L43.50 8.18Q43.33 8.55 43.13 8.78L43.13 8.78L43.13 8.78Q42.70 9.32 42.27 9.86L42.27 9.86L42.27 9.86Q41.75 10.50 41.33 10.75L41.33 10.75L41.33 10.75Q41.19 10.92 41.02 11.10L41.02 11.10L41.02 11.10Q40.85 11.28 40.68 11.28L40.68 11.28L40.68 11.28Q40.60 11.28 40.49 11.24L40.49 11.24L40.49 11.24Q40.38 11.20 40.24 11.14L40.24 11.14L40.24 11.14Q40.11 11.09 40.05 10.96L40.05 10.96L40.05 10.96Q40.01 10.37 40.01 9.70L40.01 9.70L40.01 9.70Q40.01 9.02 40.07 7.66L40.07 7.66L40.07 7.66Q40.12 6.30 40.12 5.61L40.12 5.61L40.12 5.61Q40.12 4.70 40.05 3.95L40.05 3.95L40.05 3.95Q40.04 3.93 39.75 3.63L39.75 3.63L39.75 3.63Q39.56 3.44 39.56 3.29L39.56 3.29L39.56 3.29Q39.56 3.22 39.59 3.15L39.59 3.15L39.59 3.15Q39.66 2.98 39.90 2.95L39.90 2.95L39.90 2.95Q40.08 2.93 40.26 2.91L40.26 2.91L40.26 2.91Q41.44 3.16 42.73 4.23L42.73 4.23L42.73 4.23Q43.06 4.51 43.27 4.82L43.27 4.82L43.27 4.82Q43.95 5.81 43.95 6.68L43.95 6.68L43.95 6.68Q43.95 7.13 43.76 7.53ZM42.76 6.03L42.76 6.03L42.76 6.03Q42.63 5.15 41.26 4.48L41.26 4.48L41.26 4.48Q41.16 6.82 41.20 9.44L41.20 9.44L41.20 9.44Q42.78 7.85 42.78 6.43L42.78 6.43L42.78 6.43Q42.78 6.23 42.76 6.03ZM52.16 7.53L52.16 7.53L52.16 7.53Q52.02 7.85 51.90 8.18L51.90 8.18L51.90 8.18Q51.73 8.55 51.53 8.78L51.53 8.78L51.53 8.78Q51.10 9.32 50.67 9.86L50.67 9.86L50.67 9.86Q50.15 10.50 49.73 10.75L49.73 10.75L49.73 10.75Q49.59 10.92 49.42 11.10L49.42 11.10L49.42 11.10Q49.25 11.28 49.08 11.28L49.08 11.28L49.08 11.28Q49 11.28 48.89 11.24L48.89 11.24L48.89 11.24Q48.78 11.20 48.64 11.14L48.64 11.14L48.64 11.14Q48.51 11.09 48.45 10.96L48.45 10.96L48.45 10.96Q48.41 10.37 48.41 9.70L48.41 9.70L48.41 9.70Q48.41 9.02 48.47 7.66L48.47 7.66L48.47 7.66Q48.52 6.30 48.52 5.61L48.52 5.61L48.52 5.61Q48.52 4.70 48.45 3.95L48.45 3.95L48.45 3.95Q48.44 3.93 48.15 3.63L48.15 3.63L48.15 3.63Q47.96 3.44 47.96 3.29L47.96 3.29L47.96 3.29Q47.96 3.22 47.99 3.15L47.99 3.15L47.99 3.15Q48.06 2.98 48.30 2.95L48.30 2.95L48.30 2.95Q48.48 2.93 48.66 2.91L48.66 2.91L48.66 2.91Q49.84 3.16 51.13 4.23L51.13 4.23L51.13 4.23Q51.46 4.51 51.67 4.82L51.67 4.82L51.67 4.82Q52.35 5.81 52.35 6.68L52.35 6.68L52.35 6.68Q52.35 7.13 52.16 7.53ZM51.16 6.03L51.16 6.03L51.16 6.03Q51.03 5.15 49.66 4.48L49.66 4.48L49.66 4.48Q49.56 6.82 49.60 9.44L49.60 9.44L49.60 9.44Q51.18 7.85 51.18 6.43L51.18 6.43L51.18 6.43Q51.18 6.23 51.16 6.03ZM57.82 3.63L57.82 3.63L57.82 3.63Q57.30 3.84 56.29 4.12L56.29 4.12L56.29 4.12Q55.29 4.40 54.77 4.61L54.77 4.61L54.77 4.61Q54.64 4.97 54.59 6.23L54.59 6.23L54.59 6.23Q54.81 6.31 55.10 6.31L55.10 6.31L55.10 6.31Q55.31 6.31 55.76 6.24L55.76 6.24L55.76 6.24Q56.21 6.17 56.42 6.17L56.42 6.17L56.42 6.17Q56.81 6.17 57.09 6.34L57.09 6.34L57.09 6.34Q57.29 6.62 57.29 6.71L57.29 6.71L57.29 6.71Q57.29 6.80 57.19 6.86L57.19 6.86L57.19 6.86Q57.16 6.87 56.99 7.06L56.99 7.06L56.99 7.06Q56.88 7.18 56.71 7.17L56.71 7.17L56.71 7.17Q56.42 7.24 55.64 7.25L55.64 7.25L55.64 7.25Q54.98 7.27 54.59 7.42L54.59 7.42L54.59 7.42Q54.32 8.46 54.32 9.06L54.32 9.06L54.32 9.06Q54.32 9.46 54.43 9.70L54.43 9.70L54.43 9.70Q55.09 10.16 56.71 10.09L56.71 10.09L56.71 10.09Q56.83 10.09 56.95 9.99L56.95 9.99L56.95 9.99Q57.08 9.88 57.16 9.88L57.16 9.88L57.16 9.88Q57.55 9.80 57.68 10.47L57.68 10.47L57.68 10.47Q57.72 10.70 57.60 10.88L57.60 10.88L57.60 10.88Q57.48 11.07 57.26 11.09L57.26 11.09L57.26 11.09Q55.57 11.14 54.32 10.82L54.32 10.82L54.32 10.82Q53.93 10.72 53.61 10.39L53.61 10.39L53.61 10.39Q53.28 10.05 53.24 9.63L53.24 9.63L53.24 9.63Q53.12 8.41 53.24 7.45L53.24 7.45L53.24 7.45Q52.85 7.18 52.89 6.93L52.89 6.93L52.89 6.93Q52.91 6.80 53.11 6.70L53.11 6.70L53.11 6.70Q53.31 6.59 53.34 6.48L53.34 6.48L53.34 6.48Q53.37 6.37 53.45 5.15L53.45 5.15L53.45 5.15Q52.67 5.00 52.68 4.56L52.68 4.56L52.68 4.56Q52.70 4.16 53.17 3.92L53.17 3.92L53.17 3.92Q53.62 3.74 54.07 3.56L54.07 3.56L54.07 3.56Q54.60 3.29 55.38 3.08L55.38 3.08L55.38 3.08Q56.06 2.90 56.74 2.73L56.74 2.73L56.74 2.73Q56.81 2.72 56.91 2.72L56.91 2.72L56.91 2.72Q57.29 2.72 57.79 3.01L57.79 3.01L57.79 3.01Q57.81 3.07 57.86 3.22L57.86 3.22L57.86 3.22Q57.92 3.37 57.92 3.44L57.92 3.44L57.92 3.44Q57.92 3.56 57.82 3.63ZM64.34 2.59L64.34 2.59L64.34 2.59Q63.80 3.61 62.79 6.41L62.79 6.41L62.79 6.41Q62.50 7.24 62.09 9.14L62.09 9.14L62.09 9.14Q61.70 10.96 61.33 11.90L61.33 11.90L61.33 11.90Q61.21 12.04 61.04 12.04L61.04 12.04L61.04 12.04Q60.84 12.04 60.54 11.83L60.54 11.83L60.54 11.83Q59.99 10.53 59.26 7.55L59.26 7.55L59.26 7.55Q58.58 4.70 57.89 3.22L57.89 3.22L57.89 3.22Q58.07 2.87 58.20 2.87L58.20 2.87L58.20 2.87Q58.31 2.80 58.42 2.80L58.42 2.80L58.42 2.80Q58.65 2.80 59.21 3.22L59.21 3.22L59.21 3.22Q59.71 4.37 60.17 6.03L60.17 6.03L60.17 6.03Q60.54 7.48 60.91 8.90L60.91 8.90L60.91 8.90Q61.43 7.20 61.95 5.47L61.95 5.47L61.95 5.47Q62.57 3.54 63.21 2.14L63.21 2.14L63.21 2.14Q63.42 1.78 63.94 1.90L63.94 1.90L63.94 1.90Q63.99 1.92 64.08 2.01L64.08 2.01L64.08 2.01Q64.16 2.10 64.29 2.11L64.29 2.11L64.29 2.11Q64.41 2.11 64.41 2.31L64.41 2.31L64.41 2.31Q64.41 2.45 64.34 2.59ZM69.43 3.63L69.43 3.63L69.43 3.63Q68.91 3.84 67.90 4.12L67.90 4.12L67.90 4.12Q66.89 4.40 66.37 4.61L66.37 4.61L66.37 4.61Q66.25 4.97 66.19 6.23L66.19 6.23L66.19 6.23Q66.42 6.31 66.71 6.31L66.71 6.31L66.71 6.31Q66.92 6.31 67.37 6.24L67.37 6.24L67.37 6.24Q67.82 6.17 68.03 6.17L68.03 6.17L68.03 6.17Q68.42 6.17 68.70 6.34L68.70 6.34L68.70 6.34Q68.89 6.62 68.89 6.71L68.89 6.71L68.89 6.71Q68.89 6.80 68.80 6.86L68.80 6.86L68.80 6.86Q68.77 6.87 68.60 7.06L68.60 7.06L68.60 7.06Q68.49 7.18 68.32 7.17L68.32 7.17L68.32 7.17Q68.03 7.24 67.24 7.25L67.24 7.25L67.24 7.25Q66.58 7.27 66.19 7.42L66.19 7.42L66.19 7.42Q65.93 8.46 65.93 9.06L65.93 9.06L65.93 9.06Q65.93 9.46 66.04 9.70L66.04 9.70L66.04 9.70Q66.70 10.16 68.32 10.09L68.32 10.09L68.32 10.09Q68.43 10.09 68.56 9.99L68.56 9.99L68.56 9.99Q68.68 9.88 68.77 9.88L68.77 9.88L68.77 9.88Q69.16 9.80 69.29 10.47L69.29 10.47L69.29 10.47Q69.33 10.70 69.21 10.88L69.21 10.88L69.21 10.88Q69.09 11.07 68.87 11.09L68.87 11.09L68.87 11.09Q67.17 11.14 65.93 10.82L65.93 10.82L65.93 10.82Q65.53 10.72 65.21 10.39L65.21 10.39L65.21 10.39Q64.89 10.05 64.85 9.63L64.85 9.63L64.85 9.63Q64.72 8.41 64.85 7.45L64.85 7.45L64.85 7.45Q64.46 7.18 64.50 6.93L64.50 6.93L64.50 6.93Q64.51 6.80 64.72 6.70L64.72 6.70L64.72 6.70Q64.92 6.59 64.95 6.48L64.95 6.48L64.95 6.48Q64.97 6.37 65.06 5.15L65.06 5.15L65.06 5.15Q64.27 5.00 64.29 4.56L64.29 4.56L64.29 4.56Q64.30 4.16 64.78 3.92L64.78 3.92L64.78 3.92Q65.23 3.74 65.67 3.56L65.67 3.56L65.67 3.56Q66.21 3.29 66.99 3.08L66.99 3.08L66.99 3.08Q67.66 2.90 68.35 2.73L68.35 2.73L68.35 2.73Q68.42 2.72 68.52 2.72L68.52 2.72L68.52 2.72Q68.89 2.72 69.40 3.01L69.40 3.01L69.40 3.01Q69.41 3.07 69.47 3.22L69.47 3.22L69.47 3.22Q69.52 3.37 69.52 3.44L69.52 3.44L69.52 3.44Q69.52 3.56 69.43 3.63ZM73.78 9.00L73.78 9.00L73.78 9.00Q73.75 9.02 72.14 10.16L72.14 10.16L72.14 10.16Q71.20 10.84 70.48 11.16L70.48 11.16L70.48 11.16Q70.39 11.20 70.31 11.20L70.31 11.20L70.31 11.20Q70.11 11.20 69.94 10.95L69.94 10.95L69.94 10.95Q69.69 10.61 69.68 10.60L69.68 10.60L69.68 10.60Q69.65 9.37 69.83 7.17L69.83 7.17L69.83 7.17Q70.04 4.83 70.04 3.79L70.04 3.79L70.04 3.79Q70.04 3.08 69.99 2.45L69.99 2.45L69.99 2.45Q70.17 2.27 70.45 2.27L70.45 2.27L70.45 2.27Q70.98 2.27 71.06 2.66L71.06 2.66L71.06 2.66Q71.11 3.81 70.97 6.10L70.97 6.10L70.97 6.10Q70.83 8.39 70.85 9.53L70.85 9.53L70.85 9.53Q71.25 9.37 71.88 8.95L71.88 8.95L71.88 8.95Q72.56 8.47 72.87 8.32L72.87 8.32L72.87 8.32Q72.94 8.32 73.11 8.29L73.11 8.29L73.11 8.29Q73.29 8.26 73.37 8.26L73.37 8.26L73.37 8.26Q73.65 8.26 73.78 8.48L73.78 8.48L73.78 8.48Q73.95 8.79 73.78 9.00ZM78.93 7.60L78.93 7.60L78.93 7.60Q78.11 9.46 76.59 9.81L76.59 9.81L76.59 9.81Q76.41 9.86 76.23 9.86L76.23 9.86L76.23 9.86Q75.43 9.86 74.62 8.99L74.62 8.99L74.62 8.99Q74.07 8.40 74.07 7.46L74.07 7.46L74.07 7.46Q74.07 6.43 74.69 5.24L74.69 5.24L74.69 5.24Q74.96 4.73 75.33 4.37L75.33 4.37L75.33 4.37Q75.77 3.93 76.16 3.93L76.16 3.93L76.16 3.93Q76.38 3.93 76.58 4.10L76.58 4.10L76.58 4.10Q76.78 4.27 77.63 4.55L77.63 4.55L77.63 4.55Q78.30 4.77 78.58 5.31L78.58 5.31L78.58 5.31Q79.07 6.24 79.07 6.92L79.07 6.92L79.07 6.92Q79.07 7.29 78.93 7.60ZM77.81 6.73L77.81 6.73L77.81 6.73Q77.71 5.71 77.27 5.52L77.27 5.52L77.27 5.52Q77.20 5.49 77.14 5.49L77.14 5.49L77.14 5.49Q76.97 5.49 76.72 5.77L76.72 5.77L76.72 5.77Q76.44 6.09 76.29 6.15L76.29 6.15L76.29 6.15Q76.19 6.19 76.01 6.06L76.01 6.06L76.01 6.06Q75.82 5.94 75.77 5.94L75.77 5.94L75.77 5.94Q75.73 5.94 75.70 5.96L75.70 5.96L75.70 5.96Q75.21 6.38 75.21 7.27L75.21 7.27L75.21 7.27Q75.21 7.87 75.49 8.29L75.49 8.29L75.49 8.29Q75.88 8.86 76.15 8.86L76.15 8.86L76.15 8.86Q76.76 8.86 77.34 8.09L77.34 8.09L77.34 8.09Q77.88 7.36 77.81 6.73ZM83.54 5.78L83.54 5.78L83.54 5.78Q83.01 6.93 82.63 7.31L82.63 7.31L82.63 7.31Q82.04 7.90 81.98 7.95L81.98 7.95L81.98 7.95Q81.58 8.27 81.17 8.34L81.17 8.34L81.17 8.34Q81.12 8.62 81.12 9.00L81.12 9.00L81.12 9.00Q81.12 9.27 81.16 9.81L81.16 9.81L81.16 9.81Q81.20 10.35 81.20 10.60L81.20 10.60L81.20 10.60Q81.20 11.55 80.75 12.03L80.75 12.03L80.75 12.03Q80.75 12.03 80.36 11.82L80.36 11.82L80.36 11.82Q80.12 11.69 80.09 11.51L80.09 11.51L80.09 11.51Q79.95 10.60 79.95 9.48L79.95 9.48L79.95 9.48Q79.95 8.74 80.04 7.27L80.04 7.27L80.04 7.27Q80.12 5.80 80.12 5.04L80.12 5.04L80.12 5.04Q80.12 3.95 80.00 3.04L80.00 3.04L80.00 3.04Q79.88 3.08 79.79 2.90L79.79 2.90L79.79 2.90Q79.69 2.72 79.62 2.69L79.62 2.69L79.62 2.69Q79.69 2.24 79.86 2.24L79.86 2.24L79.86 2.24Q80.07 2.17 80.72 2.27L80.72 2.27L80.72 2.27Q82.54 2.56 83.47 3.86L83.47 3.86L83.47 3.86Q83.76 4.28 83.76 4.82L83.76 4.82L83.76 4.82Q83.76 5.28 83.54 5.78ZM82.63 4.70L82.63 4.70L82.63 4.70Q82.70 4.14 82.15 3.82L82.15 3.82L82.15 3.82Q82.12 3.82 81.14 3.42L81.14 3.42L81.14 3.42Q81.30 5.99 81.24 7.03L81.24 7.03L81.24 7.03Q82.49 5.85 82.63 4.70ZM89.25 3.63L89.25 3.63L89.25 3.63Q88.73 3.84 87.72 4.12L87.72 4.12L87.72 4.12Q86.72 4.40 86.20 4.61L86.20 4.61L86.20 4.61Q86.07 4.97 86.02 6.23L86.02 6.23L86.02 6.23Q86.24 6.31 86.53 6.31L86.53 6.31L86.53 6.31Q86.74 6.31 87.19 6.24L87.19 6.24L87.19 6.24Q87.64 6.17 87.85 6.17L87.85 6.17L87.85 6.17Q88.24 6.17 88.52 6.34L88.52 6.34L88.52 6.34Q88.72 6.62 88.72 6.71L88.72 6.71L88.72 6.71Q88.72 6.80 88.62 6.86L88.62 6.86L88.62 6.86Q88.59 6.87 88.42 7.06L88.42 7.06L88.42 7.06Q88.31 7.18 88.14 7.17L88.14 7.17L88.14 7.17Q87.85 7.24 87.07 7.25L87.07 7.25L87.07 7.25Q86.41 7.27 86.02 7.42L86.02 7.42L86.02 7.42Q85.75 8.46 85.75 9.06L85.75 9.06L85.75 9.06Q85.75 9.46 85.86 9.70L85.86 9.70L85.86 9.70Q86.52 10.16 88.14 10.09L88.14 10.09L88.14 10.09Q88.26 10.09 88.38 9.99L88.38 9.99L88.38 9.99Q88.51 9.88 88.59 9.88L88.59 9.88L88.59 9.88Q88.98 9.80 89.11 10.47L89.11 10.47L89.11 10.47Q89.15 10.70 89.03 10.88L89.03 10.88L89.03 10.88Q88.91 11.07 88.69 11.09L88.69 11.09L88.69 11.09Q87.00 11.14 85.75 10.82L85.75 10.82L85.75 10.82Q85.36 10.72 85.04 10.39L85.04 10.39L85.04 10.39Q84.71 10.05 84.67 9.63L84.67 9.63L84.67 9.63Q84.55 8.41 84.67 7.45L84.67 7.45L84.67 7.45Q84.28 7.18 84.32 6.93L84.32 6.93L84.32 6.93Q84.34 6.80 84.54 6.70L84.54 6.70L84.54 6.70Q84.74 6.59 84.77 6.48L84.77 6.48L84.77 6.48Q84.80 6.37 84.88 5.15L84.88 5.15L84.88 5.15Q84.10 5.00 84.11 4.56L84.11 4.56L84.11 4.56Q84.13 4.16 84.60 3.92L84.60 3.92L84.60 3.92Q85.05 3.74 85.50 3.56L85.50 3.56L85.50 3.56Q86.03 3.29 86.81 3.08L86.81 3.08L86.81 3.08Q87.49 2.90 88.17 2.73L88.17 2.73L88.17 2.73Q88.24 2.72 88.34 2.72L88.34 2.72L88.34 2.72Q88.72 2.72 89.22 3.01L89.22 3.01L89.22 3.01Q89.24 3.07 89.29 3.22L89.29 3.22L89.29 3.22Q89.35 3.37 89.35 3.44L89.35 3.44L89.35 3.44Q89.35 3.56 89.25 3.63ZM95.27 10.72L95.27 10.72L95.27 10.72Q95.31 10.78 95.31 10.85L95.31 10.85L95.31 10.85Q95.31 11.17 94.64 11.34L94.64 11.34L94.64 11.34Q93.90 10.77 92.79 9.58L92.79 9.58L92.79 9.58Q91.56 8.25 90.96 7.73L90.96 7.73L90.96 7.73Q90.92 8.09 90.80 9.63L90.80 9.63L90.80 9.63Q90.73 10.79 90.55 11.48L90.55 11.48L90.55 11.48Q90.52 11.48 90.38 11.55L90.38 11.55L90.38 11.55Q90.23 11.62 90.13 11.59L90.13 11.59L90.13 11.59Q89.52 11.45 89.52 10.74L89.52 10.74L89.52 10.74Q89.52 10.53 89.57 10.18L89.57 10.18L89.57 10.18Q89.63 9.77 89.64 9.67L89.64 9.67L89.64 9.67Q89.70 8.86 89.71 7.74L89.71 7.74L89.71 6.22L89.71 6.22Q89.71 4.31 89.92 3.01L89.92 3.01L89.92 3.01Q90.06 2.14 91.56 2.21L91.56 2.21L91.56 2.21Q92.32 2.24 92.88 2.97L92.88 2.97L92.88 2.97Q93.39 3.64 93.39 4.42L93.39 4.42L93.39 4.42Q93.39 5.08 92.90 5.74L92.90 5.74L92.90 5.74Q92.48 6.33 91.87 6.66L91.87 6.66L91.87 6.66Q91.62 6.80 91.62 6.97L91.62 6.97L91.62 6.97Q91.62 7.15 91.91 7.41L91.91 7.41L91.91 7.41Q92.13 7.59 92.36 7.77L92.36 7.77L92.36 7.77Q92.37 7.78 93.90 9.17L93.90 9.17L93.90 9.17Q94.86 10.04 95.27 10.72ZM92.32 4.44L92.32 4.44L92.32 4.44Q92.36 4.19 92.34 3.99L92.34 3.99L92.34 3.99Q92.30 3.70 92.10 3.46L92.10 3.46L92.10 3.46Q91.90 3.22 91.45 3.22L91.45 3.22L91.45 3.22Q91.11 3.22 91.03 3.43L91.03 3.43L91.03 3.43Q90.96 3.78 90.96 4.23L90.96 4.23L90.96 4.23Q90.96 4.41 91 5.17L91 5.17L91 5.17Q91.03 5.74 91 6.10L91 6.10L91 6.10Q92.16 5.24 92.32 4.44Z"></path></g></svg>