<svg data-v-423bf9ae="" xmlns="http://www.w3.org/2000/svg" viewBox="0 0 468 90" class="iconLeftSlogan"><!----><!----><!----><g data-v-423bf9ae="" id="603a137e-5532-49ce-80a4-8ef552f75f04" fill="#000000" transform="matrix(4.189944223370775,0,0,4.189944223370775,133.11052174110858,2.09497211168539)"><path d="M4.84 10.64C7.24 10.64 8.57 9.51 9.38 8.11L7.94 7.35C7.36 8.30 6.45 9.16 4.97 9.16C3.40 9.16 2.60 8.16 2.60 6.59C2.60 4.00 3.91 2.23 6.27 2.23C7.59 2.23 8.27 3.00 8.51 3.82L10.26 3.35C9.88 1.99 8.82 0.74 6.34 0.74C2.91 0.74 0.70 3.22 0.70 6.61C0.70 8.85 2.00 10.64 4.84 10.64ZM13.62 2.94L14.29-0.50L12.43-0.50L10.35 10.50L12.18 10.50L12.89 6.75C13.19 5.17 14.06 4.23 15.12 4.23C16.51 4.23 16.27 5.29 16.06 6.27L15.22 10.50L17.04 10.50L17.92 5.98C18.27 4.19 17.98 2.86 15.92 2.86C14.70 2.86 13.83 3.47 13.34 4.34ZM24.37 4.47L24.68 2.87C24.53 2.86 24.21 2.86 24.19 2.86C23.16 2.86 22.29 3.56 21.83 4.49C21.92 3.96 22.04 3.28 22.08 3.00L20.33 3.00C20.29 3.40 20.20 3.95 20.08 4.59L18.91 10.50L20.73 10.50L21.45 6.85C21.74 5.28 22.51 4.42 23.73 4.42C24.05 4.42 24.19 4.44 24.37 4.47ZM24.50 10.50L26.32 10.50L27.79 3.00L25.97 3.00ZM26.14 1.85L28.01 1.85L28.36 0.14L26.49 0.14ZM34.23 8.79C34.48 7.18 33.47 6.71 31.92 6.03C30.69 5.50 30.63 5.03 30.69 4.70C30.76 4.30 31.14 4.07 31.68 4.07C32.21 4.07 32.89 4.23 33.07 4.98L34.62 4.69C34.37 3.57 33.31 2.86 31.70 2.86C30.03 2.86 29.13 3.67 29.01 4.66C28.87 5.74 29.29 6.64 30.95 7.36C32.12 7.87 32.58 8.09 32.54 8.64C32.49 9.16 32.14 9.45 31.23 9.45C30.16 9.45 29.79 8.85 29.64 8.27L27.99 8.57C28.15 9.65 28.99 10.64 31.22 10.64C32.86 10.64 34.03 10.02 34.23 8.79ZM35.83 4.19L36.78 4.19L35.87 8.79C35.70 9.59 35.88 10.64 37.18 10.64C37.79 10.64 38.26 10.61 38.70 10.60L38.96 9.27L38.12 9.27C37.67 9.27 37.55 9.04 37.65 8.58L38.56 4.19L39.98 4.19L40.26 3.00L38.81 3.00L39.30 0.64L37.60 0.64L37.07 3.00L36.09 3.00ZM46.12 7.17C45.65 9.13 44.83 9.38 43.96 9.38C42.48 9.38 42.28 7.74 42.59 6.30C42.99 4.38 43.95 4.10 44.70 4.10C46.19 4.10 46.45 5.74 46.12 7.17ZM47.99 7.32C48.54 4.90 47.67 2.84 44.86 2.84C42.45 2.84 41.09 4.12 40.67 6.30C40.21 8.68 41.26 10.64 43.82 10.64C46.07 10.64 47.50 9.48 47.99 7.32ZM56.63 6.90C57.02 5.00 56.76 2.84 54.42 2.84C53.30 2.84 52.43 3.33 51.88 4.14C51.95 3.75 52.02 3.32 52.07 3.00L50.25 3.00C50.16 3.63 50.11 3.99 49.98 4.65L48.17 13.82L50.05 13.82L50.74 10.22L50.92 9.21C51.21 10.08 52.00 10.64 53.13 10.64C54.99 10.64 56.10 9.53 56.63 6.90ZM54.73 6.92C54.33 8.82 53.77 9.38 52.77 9.38C51.28 9.38 51.20 7.95 51.42 6.64C51.73 4.79 52.58 4.10 53.61 4.10C55.10 4.10 54.98 5.68 54.73 6.92ZM60.70 2.94L61.38-0.50L59.51-0.50L57.43 10.50L59.26 10.50L59.98 6.75C60.27 5.17 61.14 4.23 62.20 4.23C63.59 4.23 63.35 5.29 63.14 6.27L62.30 10.50L64.12 10.50L65.00 5.98C65.35 4.19 65.06 2.86 63 2.86C61.78 2.86 60.91 3.47 60.42 4.34ZM69.27 10.64C71.12 10.64 72.00 9.93 72.62 8.71L71.04 8.20C70.77 8.88 70.27 9.39 69.44 9.39C68.52 9.39 67.94 8.65 68.10 7.29L68.11 7.14L73.11 7.14C73.21 6.66 73.28 6.08 73.28 5.66C73.28 3.98 72.32 2.86 70.24 2.86C67.73 2.86 66.50 4.41 66.25 6.78C66.00 9.09 66.79 10.64 69.27 10.64ZM70.20 4.00C70.85 4.00 71.62 4.33 71.60 5.53C71.60 5.63 71.60 5.77 71.58 5.91L68.26 5.91C68.54 4.45 69.34 4.00 70.20 4.00ZM79.45 4.47L79.76 2.87C79.60 2.86 79.28 2.86 79.27 2.86C78.23 2.86 77.36 3.56 76.90 4.49C77 3.96 77.11 3.28 77.15 3.00L75.40 3.00C75.36 3.40 75.28 3.95 75.15 4.59L73.99 10.50L75.81 10.50L76.52 6.85C76.82 5.28 77.59 4.42 78.81 4.42C79.13 4.42 79.27 4.44 79.45 4.47Z"></path></g><defs data-v-423bf9ae=""><linearGradient data-v-423bf9ae="" gradientTransform="rotate(25)" id="740a29ac-da2f-4f02-94bc-cb5bc4071338" x1="0%" y1="0%" x2="100%" y2="0%"><stop data-v-423bf9ae="" offset="0%" style="stop-color: rgb(40, 139, 88); stop-opacity: 1;"></stop><stop data-v-423bf9ae="" offset="100%" style="stop-color: rgb(21, 34, 241); stop-opacity: 1;"></stop></linearGradient></defs><g data-v-423bf9ae="" id="4da35c22-0db0-4357-9e5f-3712d6a9b0c5" transform="matrix(1.3432835820895523,0,0,1.3432835820895523,-10.92008237696406,-22.83582089552239)" stroke="none" fill="url(#740a29ac-da2f-4f02-94bc-cb5bc4071338)"><path d="M35.773 37.998c-1.312-2.003-3.34-3.234-6.086-3.234-3.857 0-7.021 1.625-9.488 5.104-2.037 2.858-3.055 5.962-3.055 9.424 0 2.8.844 5.014 2.533 6.701s3.814 2.517 6.376 2.517c2.376 0 4.474-.848 6.295-2.527.216.827.648 1.449 1.296 1.876.214.141.476.702.759.797L40.887 36h-4.534l-.58 1.998zM33.61 48.505c-.595 1.725-1.3 3.036-2.118 3.934-.571.634-1.149 1.098-1.735 1.393a5.178 5.178 0 0 1-2.477.618c-1.173 0-2.156-.44-2.95-1.325-.795-.884-1.192-2.263-1.192-4.134 0-1.398.286-3.005.856-4.817.57-1.813 1.419-3.209 2.545-4.188 1.127-.98 2.354-1.47 3.68-1.47 1.234 0 2.258.446 3.066 1.337.811.892 1.215 2.169 1.215 3.834 0 1.488-.297 3.094-.89 4.818z"></path><path d="M42.531 27.686c-3.024-1.445-6.479-2.167-10.368-2.167-4.582 0-8.655.896-12.22 2.686-3.563 1.79-6.371 4.472-8.423 8.045-2.052 3.572-3.077 7.43-3.077 11.569 0 3.772.902 7.261 2.707 10.465 1.805 3.205 4.559 5.63 8.262 7.271 3.469 1.539 7.554 2.347 12.241 2.444l1.141-4.066c-.191.003-.367.021-.562.021-3.826 0-7.225-.586-10.193-1.758-2.971-1.172-5.277-3.031-6.92-5.58-1.643-2.55-2.465-5.379-2.465-8.487 0-3.197.736-6.273 2.21-9.227 1.474-2.954 3.664-5.245 6.573-6.874 2.906-1.627 6.452-2.441 10.634-2.441 3.932 0 7.157.792 9.701 2.349l1.137-4.054c-.127-.065-.248-.134-.378-.196zM91.364 29H50.967l-1.072 4h36.542L58.458 54.377c-.231.177-.636.157-.899-.046L46.41 45.739l-1.083 4.043 9.055 6.978c2.071 1.596 5.372 1.661 7.357.145l28.518-21.788-8.923 33.302c-.087.32-.396.581-.688.581H40.249l-1.072 4h40.398c2.498 0 5.081-2.056 5.758-4.582l9.334-34.836c.677-2.526-.805-4.582-3.303-4.582zM34.023 84h-4l17.954-67h4z"></path></g><!----><g data-v-423bf9ae="" id="d0eb8dab-4a10-4a09-af94-33b11948e1bc" fill="#000000" transform="matrix(0.9028844019366614,0,0,0.9028844019366614,135.0232184643271,58.10394234455929)"><path d="M7.57 2.21L7.57 6.33L2.18 6.33L2.18 2.21L1.13 2.21L1.13 11.48L2.18 11.48L2.18 7.35L7.57 7.35L7.57 11.48L8.62 11.48L8.62 2.21ZM24.47 2.21L16.95 2.21L16.95 3.22L20.19 3.22L20.19 11.48L21.24 11.48L21.24 3.22L24.47 3.22ZM40.60 2.21L37.34 6.61L34.02 2.21L32.80 2.21L32.80 11.48L33.85 11.48L33.85 3.81L37.34 8.22L40.77 3.81L40.77 11.48L41.82 11.48L41.82 2.21ZM51.09 2.21L51.09 11.48L57.19 11.48L57.19 10.47L52.14 10.47L52.14 2.21ZM82.35 3.22L82.35 2.21L75.53 2.21L75.53 11.48L82.35 11.48L82.35 10.47L76.58 10.47L76.58 7.35L81.73 7.35L81.73 6.33L76.58 6.33L76.58 3.22ZM98.84 2.21L95.58 6.61L92.26 2.21L91.04 2.21L91.04 11.48L92.09 11.48L92.09 3.81L95.58 8.22L99.01 3.81L99.01 11.48L100.06 11.48L100.06 2.21ZM113.48 2.21L112.17 2.21L108.23 11.48L109.40 11.48L110.53 8.79L115.12 8.79L116.26 11.48L117.42 11.48ZM110.94 7.83L112.83 3.30L114.72 7.83ZM126.64 2.21L125.59 2.21L125.59 11.48L126.64 11.48ZM135.91 2.21L135.91 11.48L142.02 11.48L142.02 10.47L136.96 10.47L136.96 2.21ZM164.26 2.21L160.36 2.21L160.36 11.48L164.26 11.48C166.47 11.48 168.52 9.74 168.52 6.85C168.52 3.95 166.47 2.21 164.26 2.21ZM164.22 10.49L161.41 10.49L161.41 3.21L164.22 3.21C166.19 3.21 167.47 4.86 167.47 6.85C167.47 8.83 166.19 10.49 164.22 10.49ZM184.03 3.22L184.03 2.21L177.21 2.21L177.21 11.48L184.03 11.48L184.03 10.47L178.26 10.47L178.26 7.35L183.41 7.35L183.41 6.33L178.26 6.33L178.26 3.22ZM199.19 2.21L195.99 10.29L192.78 2.21L191.63 2.21L195.38 11.48L196.59 11.48L200.34 2.21ZM215.33 3.22L215.33 2.21L208.52 2.21L208.52 11.48L215.33 11.48L215.33 10.47L209.57 10.47L209.57 7.35L214.72 7.35L214.72 6.33L209.57 6.33L209.57 3.22ZM224.03 2.21L224.03 11.48L230.13 11.48L230.13 10.47L225.08 10.47L225.08 2.21ZM242.20 2.10C239.39 2.10 237.50 4.21 237.50 6.85C237.50 9.48 239.39 11.59 242.20 11.59C245.01 11.59 246.90 9.48 246.90 6.85C246.90 4.21 245.01 2.10 242.20 2.10ZM242.20 10.57C239.95 10.57 238.55 8.93 238.55 6.85C238.55 4.76 239.95 3.12 242.20 3.12C244.45 3.12 245.85 4.76 245.85 6.85C245.85 8.93 244.45 10.57 242.20 10.57ZM256.63 8.18L259.76 8.18C261.73 8.18 262.95 7.03 262.95 5.19C262.95 3.37 261.73 2.21 259.76 2.21L255.58 2.21L255.58 11.48L256.63 11.48ZM259.69 3.21C261.14 3.21 261.90 3.96 261.90 5.19C261.90 6.44 261.14 7.20 259.69 7.20L256.63 7.20L256.63 3.21ZM278.19 3.22L278.19 2.21L271.38 2.21L271.38 11.48L278.19 11.48L278.19 10.47L272.43 10.47L272.43 7.35L277.58 7.35L277.58 6.33L272.43 6.33L272.43 3.22ZM287.94 7.92L291.16 7.92L293.40 11.48L294.64 11.48L292.21 7.74C293.24 7.50 294.45 6.90 294.45 5.11C294.45 3.35 293.23 2.21 291.33 2.21L286.89 2.21L286.89 11.48L287.94 11.48ZM287.94 3.21L291.20 3.21C292.52 3.21 293.40 3.93 293.40 5.11C293.40 6.55 292.14 6.93 291.14 6.93L287.94 6.93Z"></path></g></svg>