<svg data-v-423bf9ae="" xmlns="http://www.w3.org/2000/svg" viewBox="0 0 331.257012037075 60" class="font"><!----><!----><!----><g data-v-423bf9ae="" id="d5bafc44-e0a1-4b40-987d-ea0ec0af59dd" fill="black" transform="matrix(4.189944223370775,0,0,4.189944223370775,-2.932958178325009,2.09497211168539)"><path d="M4.84 10.64C7.24 10.64 8.57 9.51 9.38 8.11L7.94 7.35C7.36 8.30 6.45 9.16 4.97 9.16C3.40 9.16 2.60 8.16 2.60 6.59C2.60 4.00 3.91 2.23 6.27 2.23C7.59 2.23 8.27 3.00 8.51 3.82L10.26 3.35C9.88 1.99 8.82 0.74 6.34 0.74C2.91 0.74 0.70 3.22 0.70 6.61C0.70 8.85 2.00 10.64 4.84 10.64ZM13.62 2.94L14.29-0.50L12.43-0.50L10.35 10.50L12.18 10.50L12.89 6.75C13.19 5.17 14.06 4.23 15.12 4.23C16.51 4.23 16.27 5.29 16.06 6.27L15.22 10.50L17.04 10.50L17.92 5.98C18.27 4.19 17.98 2.86 15.92 2.86C14.70 2.86 13.83 3.47 13.34 4.34ZM24.37 4.47L24.68 2.87C24.53 2.86 24.21 2.86 24.19 2.86C23.16 2.86 22.29 3.56 21.83 4.49C21.92 3.96 22.04 3.28 22.08 3.00L20.33 3.00C20.29 3.40 20.20 3.95 20.08 4.59L18.91 10.50L20.73 10.50L21.45 6.85C21.74 5.28 22.51 4.42 23.73 4.42C24.05 4.42 24.19 4.44 24.37 4.47ZM24.50 10.50L26.32 10.50L27.79 3.00L25.97 3.00ZM26.14 1.85L28.01 1.85L28.36 0.14L26.49 0.14ZM34.23 8.79C34.48 7.18 33.47 6.71 31.92 6.03C30.69 5.50 30.63 5.03 30.69 4.70C30.76 4.30 31.14 4.07 31.68 4.07C32.21 4.07 32.89 4.23 33.07 4.98L34.62 4.69C34.37 3.57 33.31 2.86 31.70 2.86C30.03 2.86 29.13 3.67 29.01 4.66C28.87 5.74 29.29 6.64 30.95 7.36C32.12 7.87 32.58 8.09 32.54 8.64C32.49 9.16 32.14 9.45 31.23 9.45C30.16 9.45 29.79 8.85 29.64 8.27L27.99 8.57C28.15 9.65 28.99 10.64 31.22 10.64C32.86 10.64 34.03 10.02 34.23 8.79ZM35.83 4.19L36.78 4.19L35.87 8.79C35.70 9.59 35.88 10.64 37.18 10.64C37.79 10.64 38.26 10.61 38.70 10.60L38.96 9.27L38.12 9.27C37.67 9.27 37.55 9.04 37.65 8.58L38.56 4.19L39.98 4.19L40.26 3.00L38.81 3.00L39.30 0.64L37.60 0.64L37.07 3.00L36.09 3.00ZM46.12 7.17C45.65 9.13 44.83 9.38 43.96 9.38C42.48 9.38 42.28 7.74 42.59 6.30C42.99 4.38 43.95 4.10 44.70 4.10C46.19 4.10 46.45 5.74 46.12 7.17ZM47.99 7.32C48.54 4.90 47.67 2.84 44.86 2.84C42.45 2.84 41.09 4.12 40.67 6.30C40.21 8.68 41.26 10.64 43.82 10.64C46.07 10.64 47.50 9.48 47.99 7.32ZM56.63 6.90C57.02 5.00 56.76 2.84 54.42 2.84C53.30 2.84 52.43 3.33 51.88 4.14C51.95 3.75 52.02 3.32 52.07 3.00L50.25 3.00C50.16 3.63 50.11 3.99 49.98 4.65L48.17 13.82L50.05 13.82L50.74 10.22L50.92 9.21C51.21 10.08 52.00 10.64 53.13 10.64C54.99 10.64 56.10 9.53 56.63 6.90ZM54.73 6.92C54.33 8.82 53.77 9.38 52.77 9.38C51.28 9.38 51.20 7.95 51.42 6.64C51.73 4.79 52.58 4.10 53.61 4.10C55.10 4.10 54.98 5.68 54.73 6.92ZM60.70 2.94L61.38-0.50L59.51-0.50L57.43 10.50L59.26 10.50L59.98 6.75C60.27 5.17 61.14 4.23 62.20 4.23C63.59 4.23 63.35 5.29 63.14 6.27L62.30 10.50L64.12 10.50L65.00 5.98C65.35 4.19 65.06 2.86 63 2.86C61.78 2.86 60.91 3.47 60.42 4.34ZM69.27 10.64C71.12 10.64 72.00 9.93 72.62 8.71L71.04 8.20C70.77 8.88 70.27 9.39 69.44 9.39C68.52 9.39 67.94 8.65 68.10 7.29L68.11 7.14L73.11 7.14C73.21 6.66 73.28 6.08 73.28 5.66C73.28 3.98 72.32 2.86 70.24 2.86C67.73 2.86 66.50 4.41 66.25 6.78C66.00 9.09 66.79 10.64 69.27 10.64ZM70.20 4.00C70.85 4.00 71.62 4.33 71.60 5.53C71.60 5.63 71.60 5.77 71.58 5.91L68.26 5.91C68.54 4.45 69.34 4.00 70.20 4.00ZM79.45 4.47L79.76 2.87C79.60 2.86 79.28 2.86 79.27 2.86C78.23 2.86 77.36 3.56 76.90 4.49C77 3.96 77.11 3.28 77.15 3.00L75.40 3.00C75.36 3.40 75.28 3.95 75.15 4.59L73.99 10.50L75.81 10.50L76.52 6.85C76.82 5.28 77.59 4.42 78.81 4.42C79.13 4.42 79.27 4.44 79.45 4.47Z"></path></g><!----><!----></svg>