<svg data-v-423bf9ae="" xmlns="http://www.w3.org/2000/svg" viewBox="0 0 496 90" class="iconLeftSlogan"><!----><!----><!----><g data-v-423bf9ae="" id="43946923-6de8-4439-9bcf-42c465749d85" fill="black" transform="matrix(5.1948051090190095,0,0,5.1948051090190095,133.8616763091132,4.76837158203125e-7)"><path d="M2.45 5.36L2.45 5.36L2.45 5.36Q2.45 4.70 2.74 4.26L2.74 4.26L2.74 4.26Q3.02 3.81 3.44 3.57L3.44 3.57L3.44 3.57Q3.86 3.33 4.27 3.33L4.27 3.33L4.27 3.33Q4.91 3.33 5.37 3.55L5.37 3.55L5.37 3.55Q5.82 3.77 6.09 4.12L6.09 4.12L6.65 2.34L6.65 2.34Q6.31 2.00 5.79 1.79L5.79 1.79L5.79 1.79Q5.26 1.58 4.41 1.58L4.41 1.58L4.41 1.58Q3.19 1.58 2.30 2.09L2.30 2.09L2.30 2.09Q1.40 2.60 0.91 3.46L0.91 3.46L0.91 3.46Q0.42 4.31 0.42 5.36L0.42 5.36L0.42 5.36Q0.42 6.41 0.91 7.27L0.91 7.27L0.91 7.27Q1.40 8.12 2.30 8.63L2.30 8.63L2.30 8.63Q3.19 9.14 4.41 9.14L4.41 9.14L4.41 9.14Q5.26 9.14 5.79 8.93L5.79 8.93L5.79 8.93Q6.31 8.72 6.65 8.39L6.65 8.39L6.09 6.61L6.09 6.61Q5.82 6.96 5.37 7.18L5.37 7.18L5.37 7.18Q4.91 7.39 4.27 7.39L4.27 7.39L4.27 7.39Q3.86 7.39 3.44 7.15L3.44 7.15L3.44 7.15Q3.02 6.92 2.74 6.47L2.74 6.47L2.74 6.47Q2.45 6.02 2.45 5.36ZM7.77 1.44L7.77 8.86L9.66 8.86L9.66 5.50L9.66 5.50Q9.86 5.21 10.14 5.01L10.14 5.01L10.14 5.01Q10.43 4.80 10.74 4.80L10.74 4.80L10.74 4.80Q11.03 4.80 11.21 5.05L11.21 5.05L11.21 5.05Q11.40 5.29 11.40 5.89L11.40 5.89L11.40 8.86L13.29 8.86L13.29 5.47L13.29 5.47Q13.29 4.45 12.82 3.89L12.82 3.89L12.82 3.89Q12.35 3.33 11.44 3.33L11.44 3.33L11.44 3.33Q10.96 3.33 10.49 3.64L10.49 3.64L10.49 3.64Q10.01 3.95 9.66 4.48L9.66 4.48L9.66 1.44L7.77 1.44ZM18.03 5.75L19.08 4.35L19.08 4.35Q18.94 4.17 18.76 3.95L18.76 3.95L18.76 3.95Q18.58 3.72 18.31 3.56L18.31 3.56L18.31 3.56Q18.05 3.40 17.65 3.40L17.65 3.40L17.65 3.40Q17.26 3.40 16.86 3.71L16.86 3.71L16.86 3.71Q16.45 4.02 16.14 4.52L16.14 4.52L16.02 3.47L14.41 3.47L14.41 8.86L16.30 8.86L16.30 5.50L16.30 5.50Q16.48 5.32 16.69 5.20L16.69 5.20L16.69 5.20Q16.90 5.08 17.09 5.08L17.09 5.08L17.09 5.08Q17.49 5.08 17.65 5.27L17.65 5.27L17.65 5.27Q17.82 5.46 18.03 5.75L18.03 5.75ZM20.03 3.47L20.03 8.86L21.92 8.86L21.92 3.47L20.03 3.47ZM19.64 1.34L20.97 2.67L22.32 1.34L20.97 0L19.64 1.34ZM25.87 7.29L25.87 7.29L25.87 7.29Q25.87 7.52 25.69 7.60L25.69 7.60L25.69 7.60Q25.51 7.67 25.21 7.67L25.21 7.67L25.21 7.67Q25.03 7.67 24.58 7.50L24.58 7.50L24.58 7.50Q24.14 7.34 23.72 6.94L23.72 6.94L23.16 8.20L23.16 8.20Q23.69 8.69 24.24 8.88L24.24 8.88L24.24 8.88Q24.79 9.07 25.49 9.07L25.49 9.07L25.49 9.07Q26.04 9.07 26.56 8.88L26.56 8.88L26.56 8.88Q27.08 8.68 27.42 8.26L27.42 8.26L27.42 8.26Q27.76 7.84 27.76 7.15L27.76 7.15L27.76 7.15Q27.76 6.72 27.52 6.43L27.52 6.43L27.52 6.43Q27.29 6.15 26.94 5.96L26.94 5.96L26.94 5.96Q26.59 5.77 26.24 5.62L26.24 5.62L26.24 5.62Q25.89 5.47 25.65 5.33L25.65 5.33L25.65 5.33Q25.41 5.18 25.41 4.97L25.41 4.97L25.41 4.97Q25.41 4.66 25.80 4.66L25.80 4.66L25.80 4.66Q25.98 4.66 26.29 4.82L26.29 4.82L26.29 4.82Q26.59 4.98 27.01 5.39L27.01 5.39L27.57 4.13L27.57 4.13Q27.05 3.64 26.54 3.45L26.54 3.45L26.54 3.45Q26.04 3.26 25.65 3.26L25.65 3.26L25.65 3.26Q25.12 3.26 24.63 3.41L24.63 3.41L24.63 3.41Q24.14 3.56 23.83 3.92L23.83 3.92L23.83 3.92Q23.52 4.28 23.52 4.97L23.52 4.97L23.52 4.97Q23.52 5.47 23.76 5.80L23.76 5.80L23.76 5.80Q24.00 6.12 24.35 6.31L24.35 6.31L24.35 6.31Q24.70 6.51 25.05 6.66L25.05 6.66L25.05 6.66Q25.40 6.80 25.63 6.94L25.63 6.94L25.63 6.94Q25.87 7.08 25.87 7.29ZM37.49 8.86L40.29 1.86L38.19 1.86L36.37 6.92L34.55 1.86L32.45 1.86L35.25 8.86L37.49 8.86ZM44.06 5.89L44.06 6.09L44.06 6.09Q43.79 5.94 43.43 5.82L43.43 5.82L43.43 5.82Q43.06 5.71 42.63 5.71L42.63 5.71L42.63 5.71Q41.82 5.71 41.27 6.10L41.27 6.10L41.27 6.10Q40.71 6.48 40.71 7.29L40.71 7.29L40.71 7.29Q40.71 7.98 40.97 8.34L40.97 8.34L40.97 8.34Q41.23 8.71 41.63 8.86L41.63 8.86L41.63 8.86Q42.03 9.00 42.42 9.00L42.42 9.00L42.42 9.00Q42.97 9.00 43.38 8.80L43.38 8.80L43.38 8.80Q43.79 8.60 44.06 8.30L44.06 8.30L44.06 8.86L45.95 8.86L45.95 5.47L45.95 5.47Q45.95 4.45 45.41 3.89L45.41 3.89L45.41 3.89Q44.87 3.33 43.96 3.33L43.96 3.33L43.96 3.33Q43.15 3.33 42.42 3.65L42.42 3.65L42.42 3.65Q41.69 3.96 41.06 4.35L41.06 4.35L41.76 5.33L41.76 5.33Q42.18 5.04 42.62 4.92L42.62 4.92L42.62 4.92Q43.06 4.80 43.26 4.80L43.26 4.80L43.26 4.80Q43.76 4.80 43.91 5.05L43.91 5.05L43.91 5.05Q44.06 5.29 44.06 5.89L44.06 5.89ZM44.06 7.00L44.06 7.00L44.06 7.56L44.06 7.56Q43.92 7.71 43.72 7.83L43.72 7.83L43.72 7.83Q43.51 7.94 43.26 7.94L43.26 7.94L43.26 7.94Q42.97 7.94 42.85 7.72L42.85 7.72L42.85 7.72Q42.74 7.50 42.74 7.31L42.74 7.31L42.74 7.31Q42.74 7.11 42.89 6.93L42.89 6.93L42.89 6.93Q43.04 6.75 43.33 6.75L43.33 6.75L43.33 6.75Q43.64 6.75 43.80 6.83L43.80 6.83L43.80 6.83Q43.96 6.92 44.06 7.00ZM50.69 5.75L51.74 4.35L51.74 4.35Q51.60 4.17 51.42 3.95L51.42 3.95L51.42 3.95Q51.24 3.72 50.97 3.56L50.97 3.56L50.97 3.56Q50.71 3.40 50.32 3.40L50.32 3.40L50.32 3.40Q49.92 3.40 49.52 3.71L49.52 3.71L49.52 3.71Q49.11 4.02 48.80 4.52L48.80 4.52L48.68 3.47L47.07 3.47L47.07 8.86L48.96 8.86L48.96 5.50L48.96 5.50Q49.14 5.32 49.35 5.20L49.35 5.20L49.35 5.20Q49.56 5.08 49.76 5.08L49.76 5.08L49.76 5.08Q50.15 5.08 50.32 5.27L50.32 5.27L50.32 5.27Q50.48 5.46 50.69 5.75L50.69 5.75ZM56.14 8.05L56.14 8.05L56.14 9.00L56.14 9.00Q56.14 9.60 55.92 9.81L55.92 9.81L55.92 9.81Q55.71 10.01 55.20 10.01L55.20 10.01L55.20 10.01Q54.80 10.01 54.24 9.85L54.24 9.85L54.24 9.85Q53.68 9.69 53.14 9.28L53.14 9.28L52.58 10.68L52.58 10.68Q53.21 11.07 53.94 11.31L53.94 11.31L53.94 11.31Q54.67 11.55 55.48 11.55L55.48 11.55L55.48 11.55Q56.08 11.55 56.67 11.30L56.67 11.30L56.67 11.30Q57.26 11.05 57.64 10.58L57.64 10.58L57.64 10.58Q58.03 10.11 58.03 9.42L58.03 9.42L58.03 3.47L56.14 3.47L56.14 3.96L56.14 3.96Q55.47 3.33 54.50 3.33L54.50 3.33L54.50 3.33Q53.76 3.33 53.25 3.70L53.25 3.70L53.25 3.70Q52.74 4.06 52.49 4.68L52.49 4.68L52.49 4.68Q52.23 5.29 52.23 6.03L52.23 6.03L52.23 6.03Q52.23 6.78 52.49 7.39L52.49 7.39L52.49 7.39Q52.74 8.01 53.25 8.37L53.25 8.37L53.25 8.37Q53.76 8.72 54.50 8.72L54.50 8.72L54.50 8.72Q54.98 8.72 55.40 8.55L55.40 8.55L55.40 8.55Q55.82 8.37 56.14 8.05ZM56.14 5.25L56.14 5.25L56.14 6.80L56.14 6.80Q55.94 7.03 55.66 7.14L55.66 7.14L55.66 7.14Q55.37 7.25 55.06 7.25L55.06 7.25L55.06 7.25Q54.56 7.25 54.34 6.90L54.34 6.90L54.34 6.90Q54.12 6.54 54.12 6.03L54.12 6.03L54.12 6.03Q54.12 5.53 54.34 5.17L54.34 5.17L54.34 5.17Q54.56 4.80 55.06 4.80L55.06 4.80L55.06 4.80Q55.37 4.80 55.66 4.91L55.66 4.91L55.66 4.91Q55.94 5.03 56.14 5.25ZM62.22 5.89L62.22 6.09L62.22 6.09Q61.95 5.94 61.59 5.82L61.59 5.82L61.59 5.82Q61.22 5.71 60.79 5.71L60.79 5.71L60.79 5.71Q59.98 5.71 59.42 6.10L59.42 6.10L59.42 6.10Q58.87 6.48 58.87 7.29L58.87 7.29L58.87 7.29Q58.87 7.98 59.13 8.34L59.13 8.34L59.13 8.34Q59.39 8.71 59.79 8.86L59.79 8.86L59.79 8.86Q60.19 9.00 60.58 9.00L60.58 9.00L60.58 9.00Q61.12 9.00 61.54 8.80L61.54 8.80L61.54 8.80Q61.95 8.60 62.22 8.30L62.22 8.30L62.22 8.86L64.11 8.86L64.11 5.47L64.11 5.47Q64.11 4.45 63.57 3.89L63.57 3.89L63.57 3.89Q63.03 3.33 62.12 3.33L62.12 3.33L62.12 3.33Q61.31 3.33 60.58 3.65L60.58 3.65L60.58 3.65Q59.85 3.96 59.22 4.35L59.22 4.35L59.92 5.33L59.92 5.33Q60.34 5.04 60.78 4.92L60.78 4.92L60.78 4.92Q61.22 4.80 61.42 4.80L61.42 4.80L61.42 4.80Q61.92 4.80 62.07 5.05L62.07 5.05L62.07 5.05Q62.22 5.29 62.22 5.89L62.22 5.89ZM62.22 7.00L62.22 7.00L62.22 7.56L62.22 7.56Q62.08 7.71 61.87 7.83L61.87 7.83L61.87 7.83Q61.67 7.94 61.42 7.94L61.42 7.94L61.42 7.94Q61.12 7.94 61.01 7.72L61.01 7.72L61.01 7.72Q60.90 7.50 60.90 7.31L60.90 7.31L60.90 7.31Q60.90 7.11 61.05 6.93L61.05 6.93L61.05 6.93Q61.19 6.75 61.49 6.75L61.49 6.75L61.49 6.75Q61.80 6.75 61.96 6.83L61.96 6.83L61.96 6.83Q62.12 6.92 62.22 7.00ZM67.66 7.29L67.66 7.29L67.66 7.29Q67.66 7.52 67.48 7.60L67.48 7.60L67.48 7.60Q67.30 7.67 67.00 7.67L67.00 7.67L67.00 7.67Q66.82 7.67 66.37 7.50L66.37 7.50L66.37 7.50Q65.93 7.34 65.51 6.94L65.51 6.94L64.95 8.20L64.95 8.20Q65.48 8.69 66.03 8.88L66.03 8.88L66.03 8.88Q66.58 9.07 67.28 9.07L67.28 9.07L67.28 9.07Q67.83 9.07 68.35 8.88L68.35 8.88L68.35 8.88Q68.87 8.68 69.21 8.26L69.21 8.26L69.21 8.26Q69.55 7.84 69.55 7.15L69.55 7.15L69.55 7.15Q69.55 6.72 69.31 6.43L69.31 6.43L69.31 6.43Q69.08 6.15 68.73 5.96L68.73 5.96L68.73 5.96Q68.38 5.77 68.03 5.62L68.03 5.62L68.03 5.62Q67.68 5.47 67.44 5.33L67.44 5.33L67.44 5.33Q67.20 5.18 67.20 4.97L67.20 4.97L67.20 4.97Q67.20 4.66 67.59 4.66L67.59 4.66L67.59 4.66Q67.77 4.66 68.08 4.82L68.08 4.82L68.08 4.82Q68.38 4.98 68.80 5.39L68.80 5.39L69.36 4.13L69.36 4.13Q68.84 3.64 68.33 3.45L68.33 3.45L68.33 3.45Q67.83 3.26 67.44 3.26L67.44 3.26L67.44 3.26Q66.91 3.26 66.42 3.41L66.42 3.41L66.42 3.41Q65.93 3.56 65.62 3.92L65.62 3.92L65.62 3.92Q65.31 4.28 65.31 4.97L65.31 4.97L65.31 4.97Q65.31 5.47 65.55 5.80L65.55 5.80L65.55 5.80Q65.79 6.12 66.14 6.31L66.14 6.31L66.14 6.31Q66.49 6.51 66.84 6.66L66.84 6.66L66.84 6.66Q67.19 6.80 67.42 6.94L67.42 6.94L67.42 6.94Q67.66 7.08 67.66 7.29Z"></path></g><!----><g data-v-423bf9ae="" id="343aadb1-44a3-4425-9085-f621b4098c15" transform="matrix(1.3432835820895523,0,0,1.3432835820895523,-10.92008237696406,-22.83582089552239)" stroke="none" fill="black"><path d="M35.773 37.998c-1.312-2.003-3.34-3.234-6.086-3.234-3.857 0-7.021 1.625-9.488 5.104-2.037 2.858-3.055 5.962-3.055 9.424 0 2.8.844 5.014 2.533 6.701s3.814 2.517 6.376 2.517c2.376 0 4.474-.848 6.295-2.527.216.827.648 1.449 1.296 1.876.214.141.476.702.759.797L40.887 36h-4.534l-.58 1.998zM33.61 48.505c-.595 1.725-1.3 3.036-2.118 3.934-.571.634-1.149 1.098-1.735 1.393a5.178 5.178 0 0 1-2.477.618c-1.173 0-2.156-.44-2.95-1.325-.795-.884-1.192-2.263-1.192-4.134 0-1.398.286-3.005.856-4.817.57-1.813 1.419-3.209 2.545-4.188 1.127-.98 2.354-1.47 3.68-1.47 1.234 0 2.258.446 3.066 1.337.811.892 1.215 2.169 1.215 3.834 0 1.488-.297 3.094-.89 4.818z"></path><path d="M42.531 27.686c-3.024-1.445-6.479-2.167-10.368-2.167-4.582 0-8.655.896-12.22 2.686-3.563 1.79-6.371 4.472-8.423 8.045-2.052 3.572-3.077 7.43-3.077 11.569 0 3.772.902 7.261 2.707 10.465 1.805 3.205 4.559 5.63 8.262 7.271 3.469 1.539 7.554 2.347 12.241 2.444l1.141-4.066c-.191.003-.367.021-.562.021-3.826 0-7.225-.586-10.193-1.758-2.971-1.172-5.277-3.031-6.92-5.58-1.643-2.55-2.465-5.379-2.465-8.487 0-3.197.736-6.273 2.21-9.227 1.474-2.954 3.664-5.245 6.573-6.874 2.906-1.627 6.452-2.441 10.634-2.441 3.932 0 7.157.792 9.701 2.349l1.137-4.054c-.127-.065-.248-.134-.378-.196zM91.364 29H50.967l-1.072 4h36.542L58.458 54.377c-.231.177-.636.157-.899-.046L46.41 45.739l-1.083 4.043 9.055 6.978c2.071 1.596 5.372 1.661 7.357.145l28.518-21.788-8.923 33.302c-.087.32-.396.581-.688.581H40.249l-1.072 4h40.398c2.498 0 5.081-2.056 5.758-4.582l9.334-34.836c.677-2.526-.805-4.582-3.303-4.582zM34.023 84h-4l17.954-67h4z"></path></g><!----><g data-v-423bf9ae="" id="b5d012ab-8fd2-4e4f-a5c3-b1669d74d181" fill="black" transform="matrix(1.022833655109263,0,0,1.022833655109263,134.75470539048897,57.494056953202694)"><path d="M1.26 2.80L1.26 12.60L1.68 12.60L1.68 7.62L7.91 7.62L7.91 12.60L8.33 12.60L8.33 2.80L7.91 2.80L7.91 7.18L1.68 7.18L1.68 2.80ZM16.87 3.21L19.39 3.21L19.39 12.60L19.81 12.60L19.81 3.21L22.33 3.21L22.33 2.80L16.87 2.80ZM39.12 3.86L39.97 12.60L40.39 12.60L39.34 2.45L35.42 10.70L31.50 2.45L30.45 12.60L30.87 12.60L31.72 3.86L35.42 11.69ZM49.49 2.80L49.49 12.60L53.97 12.60L53.97 12.19L49.91 12.19L49.91 2.80ZM74.13 7.48L78.47 7.48L78.47 7.08L74.13 7.08L74.13 3.21L78.75 3.21L78.75 2.80L73.71 2.80L73.71 12.60L78.75 12.60L78.75 12.19L74.13 12.19ZM96.38 3.86L97.23 12.60L97.65 12.60L96.60 2.45L92.68 10.70L88.76 2.45L87.71 12.60L88.13 12.60L88.98 3.86L92.68 11.69ZM109.97 2.45L105.70 12.60L106.19 12.60L107.46 9.52L112.48 9.52L113.75 12.60L114.24 12.60ZM109.97 3.50L112.28 9.07L107.66 9.07ZM122.64 2.80L122.64 12.60L123.06 12.60L123.06 2.80ZM132.51 2.80L132.51 12.60L136.99 12.60L136.99 12.19L132.93 12.19L132.93 2.80ZM156.73 2.80L156.73 12.60L159.11 12.60C160.53 12.60 161.66 12.15 162.52 11.25C163.37 10.35 163.80 9.17 163.80 7.70C163.80 6.23 163.37 5.05 162.52 4.15C161.66 3.25 160.53 2.80 159.11 2.80ZM157.15 3.22L159.11 3.22C160.41 3.22 161.44 3.63 162.20 4.46C162.97 5.28 163.35 6.37 163.35 7.70C163.35 9.09 162.97 10.18 162.22 10.98C161.46 11.78 160.43 12.18 159.11 12.18L157.15 12.18ZM173.18 7.48L177.52 7.48L177.52 7.08L173.18 7.08L173.18 3.21L177.80 3.21L177.80 2.80L172.76 2.80L172.76 12.60L177.80 12.60L177.80 12.19L173.18 12.19ZM190.40 12.03L186.62 2.80L186.13 2.80L190.40 12.95L194.67 2.80L194.18 2.80ZM203.56 7.48L207.90 7.48L207.90 7.08L203.56 7.08L203.56 3.21L208.18 3.21L208.18 2.80L203.14 2.80L203.14 12.60L208.18 12.60L208.18 12.19L203.56 12.19ZM217.56 2.80L217.56 12.60L222.04 12.60L222.04 12.19L217.98 12.19L217.98 2.80ZM229.88 7.70C229.88 6.38 230.29 5.29 231.10 4.41C231.91 3.53 232.94 3.09 234.18 3.09C235.42 3.09 236.45 3.53 237.26 4.41C238.07 5.29 238.48 6.38 238.48 7.70C238.48 9.02 238.07 10.11 237.26 10.99C236.45 11.87 235.42 12.31 234.18 12.31C232.94 12.31 231.91 11.87 231.10 10.99C230.29 10.11 229.88 9.02 229.88 7.70ZM229.46 7.70C229.46 9.16 229.91 10.36 230.80 11.30C231.69 12.24 232.82 12.71 234.18 12.71C235.54 12.71 236.67 12.24 237.56 11.30C238.45 10.36 238.90 9.16 238.90 7.70C238.90 6.24 238.45 5.04 237.56 4.10C236.67 3.16 235.54 2.69 234.18 2.69C232.82 2.69 231.69 3.16 230.80 4.10C229.91 5.04 229.46 6.24 229.46 7.70ZM247.86 2.80L247.86 12.60L248.28 12.60L248.28 8.48L249.96 8.48C250.92 8.48 251.69 8.23 252.26 7.73C252.83 7.22 253.12 6.53 253.12 5.64C253.12 4.76 252.83 4.06 252.26 3.56C251.69 3.05 250.92 2.80 249.96 2.80ZM248.28 3.21L249.96 3.21C250.81 3.21 251.48 3.41 251.97 3.83C252.45 4.24 252.69 4.85 252.69 5.64C252.69 6.44 252.45 7.04 251.97 7.45C251.48 7.87 250.81 8.08 249.96 8.08L248.28 8.08ZM262.50 7.48L266.84 7.48L266.84 7.08L262.50 7.08L262.50 3.21L267.12 3.21L267.12 2.80L262.08 2.80L262.08 12.60L267.12 12.60L267.12 12.19L262.50 12.19ZM276.92 2.80ZM276.50 2.80L276.50 12.60L276.92 12.60L276.92 8.48L278.47 8.48L281.60 12.60L282.14 12.60L278.95 8.47C279.85 8.41 280.56 8.15 281.10 7.67C281.64 7.20 281.90 6.52 281.90 5.64C281.90 4.71 281.60 4.00 280.99 3.52C280.39 3.04 279.59 2.80 278.60 2.80ZM276.92 3.21L278.60 3.21C279.47 3.21 280.16 3.41 280.69 3.83C281.21 4.24 281.47 4.85 281.47 5.64C281.47 6.44 281.21 7.04 280.69 7.45C280.16 7.87 279.47 8.08 278.60 8.08L276.92 8.08Z"></path></g></svg>